<svg width="146" height="44" viewBox="0 0 146 44" fill="none" xmlns="http://www.w3.org/2000/svg">
<path d="M145.031 38.1523C145.031 38.6968 144.924 39.2359 144.715 39.7388C144.507 40.2418 144.201 40.6987 143.816 41.0835C143.431 41.4683 142.973 41.7734 142.47 41.9814C141.967 42.1893 141.427 42.2961 140.883 42.2955H5.11694C4.01655 42.2967 2.96076 41.8608 2.18176 41.0839C1.40275 40.3069 0.964325 39.2524 0.962891 38.1523V5.11152C0.964324 4.01092 1.40258 2.95588 2.18143 2.17805C2.96028 1.40022 4.01606 0.963176 5.11694 0.962891H140.882C141.426 0.962891 141.966 1.07021 142.469 1.27871C142.973 1.48721 143.43 1.79281 143.816 2.17806C144.201 2.56331 144.506 3.02066 144.715 3.52399C144.923 4.02731 145.03 4.56676 145.03 5.11152L145.031 38.1523Z" fill="white"/>
<path d="M140.883 43.2593H5.11709C3.76154 43.259 2.46146 42.7211 1.50213 41.7637C0.542804 40.8062 0.00257924 39.5074 0 38.1522L0 5.11249C0.00200534 3.75663 0.541873 2.45692 1.50117 1.49848C2.46047 0.540044 3.76087 0.0011444 5.11709 0L140.882 0C142.238 0.00171543 143.538 0.540799 144.497 1.49911C145.456 2.45743 145.996 3.7568 145.999 5.11249V38.1522C146.001 40.9692 143.702 43.2593 140.883 43.2593Z" fill="#A6A6A6"/>
<path d="M145.031 38.1523C145.031 38.6968 144.924 39.2359 144.715 39.7388C144.507 40.2418 144.201 40.6987 143.816 41.0835C143.431 41.4683 142.973 41.7734 142.47 41.9814C141.967 42.1893 141.427 42.2961 140.883 42.2955H5.11694C4.01655 42.2967 2.96076 41.8608 2.18176 41.0839C1.40275 40.3069 0.964325 39.2524 0.962891 38.1523V5.11152C0.964324 4.01092 1.40258 2.95588 2.18143 2.17805C2.96028 1.40022 4.01606 0.963176 5.11694 0.962891H140.882C141.426 0.962891 141.966 1.07021 142.469 1.27871C142.973 1.48721 143.43 1.79281 143.816 2.17806C144.201 2.56331 144.506 3.02066 144.715 3.52399C144.923 4.02731 145.03 4.56676 145.03 5.11152L145.031 38.1523Z" fill="black"/>
<path d="M32.6006 21.4021C32.5692 17.9155 35.4562 16.2193 35.5882 16.1403C33.9532 13.7572 31.419 13.4315 30.5284 13.4056C28.4 13.1816 26.3354 14.6788 25.2512 14.6788C24.1453 14.6788 22.4757 13.4272 20.6762 13.464C18.3606 13.4997 16.1943 14.84 15.0062 16.9214C12.5542 21.1652 14.3829 27.4016 16.7321 30.832C17.9072 32.513 19.2804 34.3878 21.0777 34.3218C22.836 34.2504 23.4928 33.2021 25.6148 33.2021C27.7172 33.2021 28.334 34.3218 30.167 34.2796C32.0541 34.2504 33.2423 32.592 34.3763 30.8969C35.7343 28.9724 36.2796 27.0749 36.3013 26.9776C36.258 26.9624 32.6374 25.5799 32.6006 21.4021ZM29.138 11.149C30.0837 9.9666 30.7308 8.35799 30.5512 6.72559C29.1823 6.78617 27.4705 7.67214 26.4848 8.82857C25.6126 9.8476 24.8335 11.5179 25.0348 13.0886C26.5724 13.2033 28.1511 12.313 29.138 11.149Z" fill="white"/>
<path d="M140.882 0H68.1621L96.6453 43.2593H140.882C142.238 43.2581 143.538 42.7195 144.497 41.7616C145.457 40.8036 145.997 39.5044 145.999 38.1489V5.11249C145.997 3.75671 145.457 2.45717 144.498 1.4988C143.539 0.540422 142.238 0.00143002 140.882 0V0Z" fill="url(#paint0_linear_8239_38003)"/>
<path d="M58.0691 34.0801H55.6117L54.2657 29.8515H49.5868L48.3046 34.0801H45.9121L50.5488 19.6838H53.4119L58.0691 34.0801ZM53.8599 28.0773L52.6426 24.3182C52.5138 23.9341 52.2714 23.0298 51.9165 21.6061H51.8732C51.7304 22.2184 51.5021 23.1228 51.1893 24.3182L49.9926 28.0773H53.8599ZM69.9697 28.7621C69.9697 30.5276 69.4903 31.9231 68.5305 32.9475C67.6714 33.8595 66.6034 34.3149 65.3298 34.3149C63.9545 34.3149 62.9655 33.8248 62.3649 32.8426V38.2893H60.058V27.1113C60.058 26.0025 60.0287 24.8655 59.9725 23.6994H62.0013L62.1301 25.3448H62.1734C62.9427 24.105 64.1103 23.4852 65.6771 23.4852C66.902 23.4852 67.9246 23.9687 68.7426 24.9369C69.5596 25.9073 69.9697 27.1816 69.9697 28.7621ZM67.6194 28.8465C67.6194 27.8361 67.3922 27.0031 66.9356 26.3465C66.4367 25.6639 65.7669 25.322 64.9273 25.322C64.3581 25.322 63.8409 25.5124 63.3788 25.8878C62.9157 26.2664 62.6127 26.7608 62.471 27.3731C62.4077 27.6021 62.3717 27.8377 62.3638 28.0752V29.8071C62.3638 30.5611 62.5954 31.1983 63.0585 31.7197C63.5217 32.2389 64.1233 32.4997 64.8634 32.4997C65.7323 32.4997 66.4086 32.1632 66.8923 31.4958C67.3771 30.8261 67.6194 29.9434 67.6194 28.8465ZM81.9124 28.7621C81.9124 30.5276 81.4331 31.9231 80.4733 32.9475C79.6131 33.8595 78.5461 34.3149 77.2715 34.3149C75.8962 34.3149 74.9071 33.8248 74.3066 32.8426V38.2893H71.9996V27.1113C71.9996 26.0025 71.9704 24.8655 71.9142 23.6994H73.943L74.0718 25.3448H74.1151C74.8833 24.105 76.0509 23.4852 77.6188 23.4852C78.8426 23.4852 79.8652 23.9687 80.6854 24.9369C81.5013 25.9073 81.9124 27.1816 81.9124 28.7621ZM79.5611 28.8465C79.5611 27.8361 79.3328 27.0031 78.8762 26.3465C78.3773 25.6639 77.7097 25.322 76.87 25.322C76.3008 25.322 75.7836 25.5124 75.3194 25.8878C74.8563 26.2664 74.5544 26.7608 74.4126 27.3731C74.3423 27.6587 74.3044 27.8913 74.3044 28.0752V29.8071C74.3044 30.5611 74.5371 31.1983 74.998 31.7197C75.4612 32.2379 76.0628 32.4997 76.8051 32.4997C77.6751 32.4997 78.3514 32.1632 78.834 31.4958C79.3187 30.8261 79.5611 29.9434 79.5611 28.8465ZM95.2651 30.0419C95.2651 31.2675 94.8366 32.2638 93.9851 33.033C93.048 33.8724 91.7398 34.2932 90.0626 34.2932C88.513 34.2932 87.2708 33.9947 86.3338 33.3964L86.8672 31.4741C87.879 32.0734 88.9902 32.372 90.2 32.372C91.07 32.372 91.7463 32.1751 92.2289 31.7846C92.7125 31.393 92.9571 30.8694 92.9571 30.216C92.9571 29.6308 92.7547 29.1407 92.3576 28.7416C91.9583 28.3435 91.2983 27.9724 90.3709 27.6316C87.8497 26.6916 86.5881 25.3166 86.5881 23.5079C86.5881 22.3266 87.0339 21.3595 87.9233 20.6033C88.8128 19.8482 89.9922 19.4707 91.4595 19.4707C92.7699 19.4707 93.8617 19.699 94.7284 20.1544L94.1495 22.0345C93.3337 21.5932 92.4128 21.3725 91.3827 21.3725C90.569 21.3725 89.9306 21.5726 89.4739 21.9707C89.0898 22.3266 88.895 22.7604 88.895 23.2753C88.895 23.8433 89.1168 24.3149 89.5583 24.6849C89.9414 25.0256 90.6404 25.3967 91.651 25.7948C92.8911 26.2946 93.8022 26.8766 94.3854 27.5451C94.973 28.2136 95.2651 29.0477 95.2651 30.0419ZM102.912 25.4302H100.369V30.4702C100.369 31.7521 100.817 32.3915 101.715 32.3915C102.128 32.3915 102.47 32.3569 102.74 32.2844L102.804 34.0358C102.349 34.2056 101.751 34.2911 101.01 34.2911C100.099 34.2911 99.3867 34.0131 98.8727 33.457C98.3609 32.901 98.1034 31.9696 98.1034 30.6585V25.4259H96.5885V23.6951H98.1034V21.7944L100.369 21.1107V23.6951H102.912V25.4302ZM114.363 28.8043C114.363 30.3999 113.906 31.71 112.995 32.7344C112.041 33.7891 110.773 34.3149 109.192 34.3149C107.667 34.3149 106.454 33.8097 105.549 32.8004C104.644 31.7889 104.192 30.5146 104.192 28.9774C104.192 27.3688 104.66 26.0512 105.591 25.0267C106.525 24.0012 107.782 23.4884 109.363 23.4884C110.887 23.4884 112.111 23.9947 113.037 25.0051C113.922 25.9852 114.363 27.2509 114.363 28.8043ZM111.971 28.8573C111.971 27.9064 111.766 27.0908 111.353 26.4082C110.87 25.5838 110.177 25.1717 109.28 25.1717C108.356 25.1717 107.647 25.5838 107.165 26.4082C106.751 27.0908 106.546 27.9205 106.546 28.9006C106.546 29.8525 106.751 30.6704 107.165 31.3508C107.663 32.1751 108.359 32.5873 109.261 32.5873C110.142 32.5873 110.834 32.1665 111.334 31.3302C111.758 30.6314 111.971 29.8104 111.971 28.8573ZM121.864 25.7277C121.625 25.6844 121.381 25.663 121.137 25.6639C120.326 25.6639 119.698 25.969 119.257 26.5834C118.874 27.1243 118.681 27.808 118.681 28.6334V34.0801H116.374V26.9685C116.376 25.8788 116.354 24.7892 116.307 23.7005H118.316L118.401 25.6866H118.465C118.709 25.004 119.092 24.4534 119.618 24.0412C120.099 23.6811 120.684 23.486 121.286 23.4852C121.499 23.4852 121.691 23.5003 121.862 23.5274L121.864 25.7277ZM132.182 28.3986C132.188 28.7492 132.16 29.0996 132.098 29.4447H125.177C125.203 30.4702 125.538 31.2556 126.181 31.7965C126.764 32.279 127.518 32.5213 128.445 32.5213C129.469 32.5213 130.404 32.359 131.245 32.0312L131.606 33.6312C130.624 34.0596 129.464 34.2727 128.125 34.2727C126.515 34.2727 125.251 33.7989 124.332 32.8534C123.414 31.9068 122.954 30.6347 122.954 29.0412C122.954 27.477 123.382 26.1734 124.237 25.1338C125.133 24.0239 126.344 23.469 127.868 23.469C129.364 23.469 130.497 24.0239 131.267 25.1338C131.876 26.0133 132.182 27.1037 132.182 28.3986ZM129.982 27.8004C129.998 27.1156 129.847 26.5261 129.534 26.0274C129.135 25.3848 128.52 25.0646 127.697 25.0646C126.943 25.0646 126.328 25.3772 125.861 26.0046C125.476 26.5033 125.248 27.1027 125.178 27.7982L129.982 27.8004Z" fill="white"/>
<path d="M48.9205 14.5943C48.2789 14.5943 47.7238 14.5629 47.2617 14.5099V7.54971C47.9079 7.44991 48.561 7.40072 49.2148 7.40258C51.8605 7.40258 53.0789 8.70396 53.0789 10.8253C53.0789 13.2723 51.6398 14.5943 48.9205 14.5943ZM49.3079 8.29505C48.9508 8.29505 48.6468 8.31669 48.3946 8.36861V13.6596C48.531 13.6812 48.7928 13.691 49.1607 13.691C50.8942 13.691 51.8811 12.7044 51.8811 10.8567C51.8811 9.20916 50.9884 8.29505 49.3079 8.29505ZM56.8759 14.6473C55.3848 14.6473 54.4185 13.5341 54.4185 12.0229C54.4185 10.4478 55.4053 9.32491 56.9603 9.32491C58.4297 9.32491 59.4176 10.385 59.4176 11.9396C59.4176 13.5341 58.3994 14.6473 56.8759 14.6473ZM56.9192 10.1535C56.1 10.1535 55.5752 10.9194 55.5752 11.9904C55.5752 13.0408 56.1109 13.8067 56.9083 13.8067C57.7058 13.8067 58.2414 12.9878 58.2414 11.9688C58.2414 10.9303 57.7166 10.1535 56.9192 10.1535ZM67.9205 9.42984L66.3245 14.5315H65.2846L64.6235 12.316C64.4591 11.7741 64.3222 11.2242 64.2134 10.6685H64.1917C64.1084 11.2245 63.9504 11.7816 63.7827 12.316L63.0794 14.5315H62.0287L60.5268 9.42984H61.6921L62.27 11.8552C62.4063 12.4329 62.521 12.9781 62.6162 13.493H62.6379C62.7212 13.0635 62.8575 12.527 63.0577 11.866L63.7827 9.43092H64.7068L65.4004 11.8141C65.5681 12.3917 65.7044 12.9586 65.8105 13.4941H65.8408C65.9144 12.9694 66.0301 12.4123 66.187 11.8141L66.8071 9.43092L67.9205 9.42984ZM73.7961 14.5315H72.6621V11.6021C72.6621 10.6998 72.3159 10.2477 71.6331 10.2477C70.9611 10.2477 70.4991 10.8253 70.4991 11.4971V14.5315H69.3651V10.8881C69.3651 10.437 69.3543 9.95342 69.3229 9.42876H70.3205L70.3736 10.2163H70.4049C70.7101 9.67108 71.329 9.32491 72.0226 9.32491C73.0939 9.32491 73.7972 10.1438 73.7972 11.4766L73.7961 14.5315ZM76.9233 14.5315H75.7882V7.08887H76.9233V14.5315ZM81.0579 14.6473C79.5679 14.6473 78.6005 13.5341 78.6005 12.0229C78.6005 10.4478 79.5874 9.32491 81.1412 9.32491C82.6117 9.32491 83.5986 10.385 83.5986 11.9396C83.5997 13.5341 82.5804 14.6473 81.0579 14.6473ZM81.1001 10.1535C80.281 10.1535 79.7562 10.9194 79.7562 11.9904C79.7562 13.0408 80.2929 13.8067 81.0882 13.8067C81.8867 13.8067 82.4213 12.9878 82.4213 11.9688C82.4224 10.9303 81.8986 10.1535 81.1001 10.1535ZM88.0697 14.5315L87.9874 13.9441H87.9571C87.6109 14.4168 87.1055 14.6473 86.465 14.6473C85.5506 14.6473 84.9014 14.0068 84.9014 13.1458C84.9014 11.8866 85.9932 11.2353 87.8836 11.2353V11.1412C87.8836 10.4694 87.5276 10.133 86.8242 10.133C86.321 10.133 85.8796 10.2596 85.4911 10.5116L85.2606 9.76627C85.7324 9.47203 86.3211 9.32491 87.0125 9.32491C88.3456 9.32491 89.0186 10.0281 89.0186 11.4355V13.3145C89.0186 13.8294 89.0414 14.2286 89.0922 14.5326L88.0697 14.5315ZM87.9139 11.9904C86.6543 11.9904 86.0224 12.2955 86.0224 13.0192C86.0224 13.5547 86.3481 13.8165 86.8004 13.8165C87.3772 13.8165 87.9139 13.3762 87.9139 12.7779V11.9904ZM94.5253 14.5315L94.4723 13.7126H94.4409C94.1152 14.3314 93.5676 14.6473 92.8026 14.6473C91.5723 14.6473 90.6612 13.5655 90.6612 12.0434C90.6612 10.4478 91.6059 9.32382 92.8957 9.32382C93.5785 9.32382 94.0621 9.55424 94.3348 10.0172H94.3576V7.08887H95.4926V13.1566C95.4926 13.6499 95.5045 14.1118 95.5348 14.5315H94.5253ZM94.3576 11.5296C94.3576 10.8156 93.8847 10.2066 93.163 10.2066C92.3222 10.2066 91.8082 10.9519 91.8082 12.0012C91.8082 13.03 92.3417 13.7342 93.1402 13.7342C93.8533 13.7342 94.3576 13.1144 94.3576 12.3799V11.5296ZM102.689 14.6473C101.199 14.6473 100.233 13.5341 100.233 12.0229C100.233 10.4478 101.22 9.32491 102.774 9.32491C104.244 9.32491 105.231 10.385 105.231 11.9396C105.232 13.5341 104.214 14.6473 102.689 14.6473ZM102.732 10.1535C101.914 10.1535 101.389 10.9194 101.389 11.9904C101.389 13.0408 101.924 13.8067 102.721 13.8067C103.519 13.8067 104.054 12.9878 104.054 11.9688C104.056 10.9303 103.531 10.1535 102.732 10.1535ZM111.33 14.5315H110.195V11.6021C110.195 10.6998 109.848 10.2477 109.166 10.2477C108.494 10.2477 108.033 10.8253 108.033 11.4971V14.5315H106.898V10.8881C106.898 10.437 106.887 9.95342 106.855 9.42876H107.853L107.906 10.2163H107.937C108.242 9.67108 108.862 9.32382 109.554 9.32382C110.625 9.32382 111.33 10.1427 111.33 11.4755V14.5315ZM118.959 10.2801H117.712V12.7574C117.712 13.3881 117.93 13.7029 118.372 13.7029C118.572 13.7029 118.74 13.6812 118.875 13.6499L118.906 14.511C118.687 14.5953 118.392 14.6375 118.027 14.6375C117.133 14.6375 116.598 14.1442 116.598 12.8526V10.2801H115.854V9.42984H116.598V8.49518L117.712 8.15875V9.42876H118.959V10.2801ZM124.963 14.5315H123.83V11.6237C123.83 10.7107 123.485 10.2487 122.801 10.2487C122.213 10.2487 121.666 10.6479 121.666 11.456V14.5315H120.533V7.08887H121.666V10.1535H121.688C122.045 9.59751 122.563 9.32382 123.223 9.32382C124.303 9.32382 124.963 10.1633 124.963 11.4971V14.5315ZM131.113 12.2533H127.71C127.732 13.2193 128.371 13.7645 129.318 13.7645C129.821 13.7645 130.284 13.6802 130.693 13.5233L130.87 14.3108C130.387 14.5207 129.819 14.6256 129.158 14.6256C127.562 14.6256 126.617 13.6174 126.617 12.0542C126.617 10.49 127.585 9.31409 129.03 9.31409C130.334 9.31409 131.152 10.2801 131.152 11.7394C131.159 11.9117 131.146 12.0841 131.113 12.2533ZM130.073 11.4452C130.073 10.6577 129.676 10.1016 128.951 10.1016C128.3 10.1016 127.785 10.6685 127.711 11.4452H130.073Z" fill="white"/>
<defs>
<linearGradient id="paint0_linear_8239_38003" x1="107.08" y1="43.3741" x2="107.08" y2="-112.64" gradientUnits="userSpaceOnUse">
<stop stop-color="#1A1A1A" stop-opacity="0.1"/>
<stop offset="0.123" stop-color="#212121" stop-opacity="0.151"/>
<stop offset="0.308" stop-color="#353535" stop-opacity="0.227"/>
<stop offset="0.532" stop-color="#575757" stop-opacity="0.318"/>
<stop offset="0.783" stop-color="#858585" stop-opacity="0.421"/>
<stop offset="1" stop-color="#B3B3B3" stop-opacity="0.51"/>
</linearGradient>
</defs>
</svg>
