<svg viewBox="0 0 174 50" fill="none" xmlns="http://www.w3.org/2000/svg">
<path d="M18.9124 35.4809L18.8427 35.6477H19.0234H24.6183H24.7054L24.7326 35.5649L25.5916 32.9546H38.0309L39.0528 35.5711L39.0827 35.6477H39.1649H44.7598H44.9426L44.8703 35.4798L35.3591 13.3801L35.3277 13.3073H35.2485H28.2549H28.1748L28.1439 13.3813L18.9124 35.4809ZM35.2457 26.9426H28.6381L31.8271 19.9925H32.1432L35.2457 26.9426Z" fill="white" stroke="white" stroke-width="0.24069"/>
<path d="M72.0649 35.4805L71.9942 35.6477H72.1758H77.4909H77.5693L77.601 35.576L78.6551 33.1905H91.0997L91.9238 35.5668L91.9519 35.6477H92.0375H97.6324H97.8089L97.7444 35.4834L89.0724 13.3837L89.0424 13.3073H88.9603H81.5227H81.4429L81.4118 13.3808L72.0649 35.4805ZM88.3179 27.1784H81.7103L84.8993 20.2283H85.2154L88.3179 27.1784Z" fill="#FB9746" stroke="#FB9746" stroke-width="0.24069"/>
<mask id="path-3-outside-1_1983_14080" maskUnits="userSpaceOnUse" x="100.27" y="12.4277" width="57" height="24" fill="black">
<rect fill="white" x="100.27" y="12.4277" width="57" height="24"/>
<path fill-rule="evenodd" clip-rule="evenodd" d="M124.719 35.5712V13.4277L130.032 13.4277V35.5402L124.719 35.5712ZM101.27 35.5712V13.4277H115.642C117.536 13.4277 118.936 13.9438 119.844 14.9762C120.767 15.9878 121.228 17.5157 121.228 19.5597C121.228 21.6037 120.703 23.1006 119.653 24.0504C120.353 24.5459 120.87 25.2066 121.205 26.0324C121.539 26.8376 121.706 27.8803 121.706 29.1604C121.706 31.2457 121.244 32.8355 120.321 33.9298C119.414 35.0034 118.013 35.5402 116.119 35.5402L101.27 35.5712ZM132.61 13.4277V35.5712H137.854V28.254L141.217 25.4471L147.723 35.5712L154.823 35.5402L145.557 21.9722L155.828 13.4277H147.716L137.854 21.205V13.4277L132.61 13.4277ZM115.642 18.8483H106.926V21.8544H115.642C117.295 21.8544 117.356 18.8483 115.642 18.8483ZM115.642 27.0969H106.926V30.0428H115.642C117.177 30.0428 117.177 27.0969 115.642 27.0969Z"/>
</mask>
<path fill-rule="evenodd" clip-rule="evenodd" d="M124.719 35.5712V13.4277L130.032 13.4277V35.5402L124.719 35.5712ZM101.27 35.5712V13.4277H115.642C117.536 13.4277 118.936 13.9438 119.844 14.9762C120.767 15.9878 121.228 17.5157 121.228 19.5597C121.228 21.6037 120.703 23.1006 119.653 24.0504C120.353 24.5459 120.87 25.2066 121.205 26.0324C121.539 26.8376 121.706 27.8803 121.706 29.1604C121.706 31.2457 121.244 32.8355 120.321 33.9298C119.414 35.0034 118.013 35.5402 116.119 35.5402L101.27 35.5712ZM132.61 13.4277V35.5712H137.854V28.254L141.217 25.4471L147.723 35.5712L154.823 35.5402L145.557 21.9722L155.828 13.4277H147.716L137.854 21.205V13.4277L132.61 13.4277ZM115.642 18.8483H106.926V21.8544H115.642C117.295 21.8544 117.356 18.8483 115.642 18.8483ZM115.642 27.0969H106.926V30.0428H115.642C117.177 30.0428 117.177 27.0969 115.642 27.0969Z" fill="white"/>
<path d="M124.719 13.4277V13.187L124.479 13.187V13.4277H124.719ZM124.719 35.5712H124.479V35.8133L124.721 35.8119L124.719 35.5712ZM130.032 13.4277H130.273V13.187L130.032 13.187V13.4277ZM130.032 35.5402L130.033 35.7809L130.273 35.7795V35.5402H130.032ZM101.27 13.4277V13.187H101.029V13.4277H101.27ZM101.27 35.5712H101.029V35.8124L101.27 35.8119L101.27 35.5712ZM119.844 14.9762L119.663 15.1351L119.666 15.1384L119.844 14.9762ZM119.653 24.0504L119.491 23.8718L119.268 24.0733L119.514 24.2468L119.653 24.0504ZM121.205 26.0324L120.981 26.1227L120.982 26.1247L121.205 26.0324ZM120.321 33.9298L120.505 34.0851L120.505 34.085L120.321 33.9298ZM116.119 35.5402V35.2995H116.119L116.119 35.5402ZM132.61 35.5712H132.369V35.8119H132.61V35.5712ZM132.61 13.4277V13.187L132.369 13.187V13.4277H132.61ZM137.854 35.5712V35.8119H138.095V35.5712H137.854ZM137.854 28.254L137.7 28.0693L137.614 28.1414V28.254H137.854ZM141.217 25.4471L141.419 25.317L141.272 25.0876L141.062 25.2623L141.217 25.4471ZM147.723 35.5712L147.52 35.7013L147.592 35.8124L147.724 35.8119L147.723 35.5712ZM154.823 35.5402L154.824 35.7809L155.278 35.7789L155.022 35.4044L154.823 35.5402ZM145.557 21.9722L145.403 21.7871L145.234 21.9271L145.358 22.1079L145.557 21.9722ZM155.828 13.4277L155.982 13.6127L156.494 13.187H155.828V13.4277ZM147.716 13.4277V13.187H147.632L147.567 13.2387L147.716 13.4277ZM137.854 21.205H137.614V21.7013L138.003 21.3939L137.854 21.205ZM137.854 13.4277H138.095V13.187L137.854 13.187V13.4277ZM106.926 18.8483V18.6076H106.685V18.8483H106.926ZM106.926 21.8544H106.685V22.0951H106.926V21.8544ZM106.926 27.0969V26.8562H106.685V27.0969H106.926ZM106.926 30.0428H106.685V30.2835H106.926V30.0428ZM124.479 13.4277V35.5712H124.96V13.4277H124.479ZM130.032 13.187L124.719 13.187V13.6684L130.032 13.6683V13.187ZM130.273 35.5402V13.4277H129.791V35.5402H130.273ZM124.721 35.8119L130.033 35.7809L130.031 35.2995L124.718 35.3305L124.721 35.8119ZM101.029 13.4277V35.5712H101.51V13.4277H101.029ZM115.642 13.187H101.27V13.6684H115.642V13.187ZM120.024 14.8173C119.056 13.7155 117.578 13.187 115.642 13.187V13.6684C117.494 13.6684 118.817 14.1722 119.663 15.1351L120.024 14.8173ZM121.469 19.5597C121.469 17.4846 121.001 15.8875 120.021 14.8139L119.666 15.1384C120.533 16.0882 120.988 17.5468 120.988 19.5597H121.469ZM119.814 24.2289C120.934 23.2163 121.469 21.641 121.469 19.5597H120.988C120.988 21.5664 120.472 22.9849 119.491 23.8718L119.814 24.2289ZM121.428 25.9421C121.077 25.0753 120.531 24.3771 119.792 23.8539L119.514 24.2468C120.175 24.7147 120.664 25.3378 120.981 26.1227L121.428 25.9421ZM121.947 29.1604C121.947 27.8622 121.777 26.785 121.427 25.9402L120.982 26.1247C121.3 26.8903 121.465 27.8984 121.465 29.1604H121.947ZM120.505 34.085C121.478 32.9312 121.947 31.2772 121.947 29.1604H121.465C121.465 31.2142 121.01 32.7398 120.137 33.7746L120.505 34.085ZM116.119 35.7809C118.058 35.7809 119.538 35.23 120.505 34.0851L120.137 33.7744C119.29 34.7768 117.969 35.2995 116.119 35.2995V35.7809ZM101.27 35.8119L116.12 35.7809L116.119 35.2995L101.269 35.3305L101.27 35.8119ZM132.85 35.5712V13.4277H132.369V35.5712H132.85ZM137.854 35.3305H132.61V35.8119H137.854V35.3305ZM137.614 28.254V35.5712H138.095V28.254H137.614ZM141.062 25.2623L137.7 28.0693L138.009 28.4388L141.371 25.6319L141.062 25.2623ZM147.925 35.441L141.419 25.317L141.014 25.5772L147.52 35.7013L147.925 35.441ZM154.822 35.2995L147.722 35.3305L147.724 35.8119L154.824 35.7809L154.822 35.2995ZM145.358 22.1079L154.624 35.6759L155.022 35.4044L145.755 21.8364L145.358 22.1079ZM155.674 13.2426L145.403 21.7871L145.71 22.1572L155.982 13.6127L155.674 13.2426ZM147.716 13.6683H155.828V13.187H147.716V13.6683ZM138.003 21.3939L147.865 13.6166L147.567 13.2387L137.705 21.016L138.003 21.3939ZM137.614 13.4277V21.205H138.095V13.4277H137.614ZM132.61 13.6683L137.854 13.6684V13.187L132.61 13.187V13.6683ZM106.926 19.0889H115.642V18.6076H106.926V19.0889ZM107.166 21.8544V18.8483H106.685V21.8544H107.166ZM115.642 21.6137H106.926V22.0951H115.642V21.6137ZM115.642 19.0889C115.99 19.0889 116.238 19.2377 116.404 19.4616C116.576 19.6928 116.668 20.0142 116.664 20.3489C116.661 20.6834 116.563 21.0068 116.388 21.2402C116.218 21.4673 115.972 21.6137 115.642 21.6137V22.0951C116.138 22.0951 116.52 21.8657 116.773 21.5291C117.021 21.1989 117.141 20.7707 117.145 20.3538C117.15 19.9369 117.038 19.5067 116.791 19.1743C116.538 18.8346 116.15 18.6076 115.642 18.6076V19.0889ZM106.926 27.3376H115.642V26.8562H106.926V27.3376ZM107.166 30.0428V27.0969H106.685V30.0428H107.166ZM115.642 29.8021H106.926V30.2835H115.642V29.8021ZM115.642 27.3376C115.937 27.3376 116.155 27.4744 116.308 27.6946C116.466 27.9219 116.553 28.2392 116.553 28.5699C116.553 28.9005 116.466 29.2178 116.308 29.4452C116.155 29.6653 115.937 29.8021 115.642 29.8021V30.2835C116.114 30.2835 116.472 30.0521 116.703 29.7199C116.929 29.3949 117.034 28.9757 117.034 28.5699C117.034 28.164 116.929 27.7448 116.703 27.4198C116.472 27.0876 116.114 26.8562 115.642 26.8562V27.3376Z" fill="white" mask="url(#path-3-outside-1_1983_14080)"/>
<path d="M48.4199 30.3288V35.8071H63.3217C65.2371 35.8071 66.7211 35.2471 67.7737 34.127C68.8436 33.007 69.3785 31.3676 69.3785 29.209C69.3785 27.03 69.1488 24.967 67.7737 23.6849C66.6507 22.6377 65.3221 22.0305 63.4068 22.0305H54.0554C52.6116 22.0305 52.4968 19.0225 54.0554 19.0225H68.5172V13.4277H53.6452C51.7298 13.4277 50.2074 14.2106 49.1375 15.3103C48.0849 16.3896 47.5586 17.9882 47.5586 20.1061C47.5586 22.224 48.0849 23.8328 49.1375 24.9325C50.2074 26.0118 51.6498 27.1817 54.0554 27.1817H62.8817C64.3255 27.1817 64.4403 30.3288 62.8817 30.3288H48.4199Z" fill="white" stroke="white" stroke-width="0.240389"/>
</svg>
