<svg width="311" height="88" viewBox="0 0 311 88" fill="none" xmlns="http://www.w3.org/2000/svg">
<path d="M33.8015 63.4171L33.677 63.7151H34H44H44.1557L44.2043 63.5672L45.7397 58.9017H67.9732L69.7996 63.5783L69.8531 63.7151H70H80H80.3267L80.1976 63.415L63.1976 23.915L63.1416 23.7849H63H50.5H50.3567L50.3015 23.9171L33.8015 63.4171ZM62.995 48.156H51.1848L56.8847 35.7337H57.4497L62.995 48.156Z" fill="#163F7B" stroke="#163F7B" stroke-width="0.430199"/>
<path d="M128.802 63.4162L128.675 63.7151H129H138.5H138.64L138.697 63.5869L140.581 59.3232H162.824L164.297 63.5705L164.347 63.7151H164.5H174.5H174.815L174.7 63.4214L159.2 23.9214L159.147 23.7849H159H145.706H145.564L145.508 23.9162L128.802 63.4162ZM157.852 48.5775H146.042L151.742 36.1552H152.306L157.852 48.5775Z" fill="#FB9746" stroke="#FB9746" stroke-width="0.430199"/>
<mask id="path-3-outside-1_1919_5296" maskUnits="userSpaceOnUse" x="180" y="23" width="100" height="42" fill="black">
<rect fill="white" x="180" y="23" width="100" height="42"/>
<path fill-rule="evenodd" clip-rule="evenodd" d="M222.913 63.5783V24L232.409 24V63.523L222.913 63.5783ZM181 63.5783V24H206.688C210.074 24 212.577 24.9226 214.199 26.7677C215.849 28.576 216.674 31.3068 216.674 34.9602C216.674 38.6136 215.735 41.289 213.857 42.9865C215.109 43.8722 216.034 45.0531 216.631 46.5292C217.228 47.9684 217.527 49.832 217.527 52.12C217.527 55.8472 216.702 58.6887 215.052 60.6446C213.431 62.5635 210.927 63.523 207.542 63.523L181 63.5783ZM237.016 24V63.5783H246.39V50.5L252.399 45.483L264.028 63.5783L276.719 63.523L260.157 39.2721L278.516 24H264.016L246.39 37.9008V24L237.016 24ZM206.688 33.6885H191.11V39.0616H206.688C209.644 39.0616 209.753 33.6885 206.688 33.6885ZM206.688 48.4318H191.11V53.6972H206.688C209.433 53.6972 209.433 48.4318 206.688 48.4318Z"/>
</mask>
<path fill-rule="evenodd" clip-rule="evenodd" d="M222.913 63.5783V24L232.409 24V63.523L222.913 63.5783ZM181 63.5783V24H206.688C210.074 24 212.577 24.9226 214.199 26.7677C215.849 28.576 216.674 31.3068 216.674 34.9602C216.674 38.6136 215.735 41.289 213.857 42.9865C215.109 43.8722 216.034 45.0531 216.631 46.5292C217.228 47.9684 217.527 49.832 217.527 52.12C217.527 55.8472 216.702 58.6887 215.052 60.6446C213.431 62.5635 210.927 63.523 207.542 63.523L181 63.5783ZM237.016 24V63.5783H246.39V50.5L252.399 45.483L264.028 63.5783L276.719 63.523L260.157 39.2721L278.516 24H264.016L246.39 37.9008V24L237.016 24ZM206.688 33.6885H191.11V39.0616H206.688C209.644 39.0616 209.753 33.6885 206.688 33.6885ZM206.688 48.4318H191.11V53.6972H206.688C209.433 53.6972 209.433 48.4318 206.688 48.4318Z" fill="#163F7B"/>
<path d="M222.913 24V23.5698L222.483 23.5698V24H222.913ZM222.913 63.5783H222.483V64.0111L222.915 64.0085L222.913 63.5783ZM232.409 24H232.839V23.5698L232.409 23.5698V24ZM232.409 63.523L232.411 63.9532L232.839 63.9507V63.523H232.409ZM181 24V23.5698H180.57V24H181ZM181 63.5783H180.57V64.0094L181.001 64.0085L181 63.5783ZM214.199 26.7677L213.875 27.0518L213.881 27.0577L214.199 26.7677ZM213.857 42.9865L213.569 42.6674L213.17 43.0276L213.609 43.3377L213.857 42.9865ZM216.631 46.5292L216.232 46.6906L216.234 46.6942L216.631 46.5292ZM215.052 60.6446L215.381 60.9222L215.381 60.922L215.052 60.6446ZM207.542 63.523V63.0928H207.541L207.542 63.523ZM237.016 63.5783H236.586V64.0085H237.016V63.5783ZM237.016 24V23.5698L236.586 23.5698V24H237.016ZM246.39 63.5783V64.0085H246.82V63.5783H246.39ZM246.39 50.5L246.115 50.1698L245.96 50.2987V50.5H246.39ZM252.399 45.483L252.761 45.2505L252.498 44.8405L252.124 45.1528L252.399 45.483ZM264.028 63.5783L263.667 63.8109L263.794 64.0096L264.03 64.0085L264.028 63.5783ZM276.719 63.523L276.721 63.9532L277.532 63.9496L277.075 63.2804L276.719 63.523ZM260.157 39.2721L259.882 38.9414L259.581 39.1916L259.801 39.5147L260.157 39.2721ZM278.516 24L278.791 24.3307L279.706 23.5698H278.516V24ZM264.016 24V23.5698H263.867L263.75 23.6622L264.016 24ZM246.39 37.9008H245.96V38.788L246.657 38.2386L246.39 37.9008ZM246.39 24H246.82V23.5698L246.39 23.5698V24ZM191.11 33.6885V33.2583H190.679V33.6885H191.11ZM191.11 39.0616H190.679V39.4918H191.11V39.0616ZM191.11 48.4318V48.0016H190.679V48.4318H191.11ZM191.11 53.6972H190.679V54.1274H191.11V53.6972ZM222.483 24V63.5783H223.343V24H222.483ZM232.409 23.5698L222.913 23.5698V24.4302L232.409 24.4302V23.5698ZM232.839 63.523V24H231.979V63.523H232.839ZM222.915 64.0085L232.411 63.9532L232.406 63.0928L222.91 63.1482L222.915 64.0085ZM180.57 24V63.5783H181.43V24H180.57ZM206.688 23.5698H181V24.4302H206.688V23.5698ZM214.522 26.4838C212.791 24.5144 210.149 23.5698 206.688 23.5698V24.4302C209.999 24.4302 212.363 25.3308 213.875 27.0517L214.522 26.4838ZM217.104 34.9602C217.104 31.2511 216.267 28.3965 214.516 26.4778L213.881 27.0577C215.43 28.7554 216.243 31.3625 216.243 34.9602H217.104ZM214.146 43.3057C216.148 41.4958 217.104 38.6802 217.104 34.9602H216.243C216.243 38.5469 215.322 41.0822 213.569 42.6674L214.146 43.3057ZM217.03 46.3678C216.403 44.8185 215.427 43.5705 214.106 42.6354L213.609 43.3377C214.791 44.1739 215.664 45.2877 216.232 46.6906L217.03 46.3678ZM217.957 52.12C217.957 49.7996 217.655 47.8743 217.028 46.3643L216.234 46.6942C216.802 48.0626 217.097 49.8644 217.097 52.12H217.957ZM215.381 60.922C217.121 58.8598 217.957 55.9035 217.957 52.12H217.097C217.097 55.7909 216.284 58.5176 214.723 60.3672L215.381 60.922ZM207.542 63.9532C211.007 63.9532 213.651 62.9686 215.381 60.9222L214.723 60.3669C213.21 62.1585 210.847 63.0928 207.542 63.0928V63.9532ZM181.001 64.0085L207.543 63.9532L207.541 63.0928L180.999 63.1481L181.001 64.0085ZM237.446 63.5783V24H236.586V63.5783H237.446ZM246.39 63.1481H237.016V64.0085H246.39V63.1481ZM245.96 50.5V63.5783H246.82V50.5H245.96ZM252.124 45.1528L246.115 50.1698L246.666 50.8302L252.675 45.8133L252.124 45.1528ZM264.39 63.3458L252.761 45.2505L252.038 45.7156L263.667 63.8109L264.39 63.3458ZM276.717 63.0928L264.027 63.1481L264.03 64.0085L276.721 63.9532L276.717 63.0928ZM259.801 39.5147L276.364 63.7656L277.075 63.2804L260.512 39.0295L259.801 39.5147ZM278.241 23.6693L259.882 38.9414L260.432 39.6028L278.791 24.3307L278.241 23.6693ZM264.016 24.4302H278.516V23.5698H264.016V24.4302ZM246.657 38.2386L264.283 24.3378L263.75 23.6622L246.124 37.563L246.657 38.2386ZM245.96 24V37.9008H246.82V24H245.96ZM237.016 24.4302L246.39 24.4302V23.5698L237.016 23.5698V24.4302ZM191.11 34.1187H206.688V33.2583H191.11V34.1187ZM191.54 39.0616V33.6885H190.679V39.0616H191.54ZM206.688 38.6314H191.11V39.4918H206.688V38.6314ZM206.688 34.1187C207.312 34.1187 207.754 34.3845 208.052 34.7848C208.359 35.1981 208.522 35.7725 208.516 36.3707C208.51 36.9687 208.335 37.5466 208.022 37.9638C207.718 38.3697 207.279 38.6314 206.688 38.6314V39.4918C207.575 39.4918 208.259 39.0818 208.71 38.4802C209.153 37.8901 209.369 37.1247 209.376 36.3794C209.384 35.6344 209.184 34.8655 208.742 34.2714C208.291 33.6642 207.598 33.2583 206.688 33.2583V34.1187ZM191.11 48.862H206.688V48.0016H191.11V48.862ZM191.54 53.6972V48.4318H190.679V53.6972H191.54ZM206.688 53.267H191.11V54.1274H206.688V53.267ZM206.688 48.862C207.216 48.862 207.606 49.1066 207.879 49.5001C208.162 49.9064 208.317 50.4736 208.317 51.0645C208.317 51.6555 208.162 52.2226 207.879 52.629C207.606 53.0224 207.216 53.267 206.688 53.267V54.1274C207.533 54.1274 208.173 53.7139 208.586 53.1201C208.99 52.5391 209.177 51.7899 209.177 51.0645C209.177 50.3391 208.99 49.5899 208.586 49.009C208.173 48.4152 207.533 48.0016 206.688 48.0016V48.862Z" fill="#163F7B" mask="url(#path-3-outside-1_1919_5296)"/>
<path d="M86.5395 54.2083V64H113.174C116.598 64 119.25 62.999 121.132 60.9971C123.044 58.9952 124 56.0651 124 52.2069C124 48.3123 123.589 44.625 121.132 42.3333C119.124 40.4617 116.75 39.3764 113.326 39.3764H96.6121C94.0316 39.3764 93.8263 34 96.6121 34H122.461V24H95.8789C92.4555 24 89.7343 25.3994 87.8221 27.3649C85.9407 29.2941 85 32.1513 85 35.9368C85 39.7222 85.9407 42.5977 87.8221 44.5632C89.7343 46.4923 92.3125 48.5833 96.6121 48.5833H112.388C114.968 48.5833 115.174 54.2083 112.388 54.2083H86.5395Z" fill="#163F7B" stroke="#163F7B" stroke-width="0.429661"/>
</svg>
