<svg width="1916" height="1024" viewBox="0 0 1916 1024" fill="none" xmlns="http://www.w3.org/2000/svg">
<g clip-path="url(#clip0_4622_12782)">
<path d="M-235.527 112.992C-235.527 250.506 -124.049 361.984 13.465 361.984C150.98 361.984 262.457 250.506 262.457 112.992C262.457 -24.5225 150.98 -136 13.465 -136C-124.049 -136 -235.527 -24.5225 -235.527 112.992Z" fill="#0A1F44"/>
<g filter="url(#filter0_f_4622_12782)">
<path d="M6.5 243.079C77.4686 243.079 135 172.976 135 86.4996C135 0.0230179 77.4686 -70.0801 6.5 -70.0801C-64.4686 -70.0801 -122 0.0230179 -122 86.4996C-122 172.976 -64.4686 243.079 6.5 243.079Z" fill="#234EAD"/>
</g>
<path d="M-0.0599365 451.115C-4.67341 451.499 -9.3226 451.758 -14.0041 451.887L-14.0179 451.387C-16.3395 451.451 -18.6691 451.484 -21.0063 451.484C-23.3434 451.484 -25.6729 451.451 -27.9944 451.387L-28.0083 451.887C-32.6898 451.758 -37.339 451.499 -41.9525 451.115L-41.9109 450.617C-46.5654 450.229 -51.1836 449.713 -55.7617 449.072L-55.8309 449.567C-60.4626 448.919 -65.0535 448.144 -69.5999 447.244L-69.503 446.754C-74.0788 445.849 -78.6094 444.818 -83.0912 443.665L-83.2158 444.149C-87.7429 442.985 -92.2203 441.696 -96.6439 440.287L-96.4922 439.811C-100.934 438.396 -105.322 436.86 -109.651 435.206L-109.83 435.673C-114.191 434.007 -118.493 432.223 -122.733 430.323L-122.528 429.866C-126.778 427.962 -130.964 425.941 -135.083 423.809L-135.313 424.253C-139.455 422.109 -143.529 419.852 -147.531 417.486L-147.276 417.056C-151.282 414.688 -155.215 412.211 -159.072 409.629L-159.35 410.045C-163.223 407.452 -167.019 404.753 -170.735 401.952L-170.434 401.553C-174.148 398.754 -177.78 395.853 -181.328 392.854L-181.651 393.236C-185.208 390.229 -188.68 387.124 -192.063 383.925L-191.719 383.562C-195.096 380.368 -198.383 377.081 -201.576 373.705L-201.94 374.048C-205.138 370.666 -208.243 367.194 -211.251 363.636L-210.869 363.313C-213.867 359.766 -216.768 356.133 -219.568 352.419L-219.967 352.72C-222.767 349.005 -225.466 345.208 -228.059 341.335L-227.644 341.057C-230.226 337.2 -232.703 333.267 -235.07 329.262L-235.501 329.516C-237.867 325.514 -240.124 321.44 -242.268 317.298L-241.824 317.068C-243.956 312.95 -245.976 308.763 -247.881 304.514L-248.337 304.718C-250.237 300.479 -252.022 296.176 -253.688 291.815L-253.221 291.637C-254.875 287.307 -256.411 282.919 -257.825 278.477L-258.302 278.629C-259.711 274.205 -260.999 269.728 -262.164 265.201L-261.679 265.076C-262.832 260.595 -263.863 256.064 -264.768 251.488L-265.259 251.585C-266.158 247.039 -266.934 242.448 -267.582 237.816L-267.087 237.747C-267.728 233.169 -268.244 228.551 -268.631 223.896L-269.13 223.938C-269.514 219.324 -269.772 214.675 -269.902 209.993L-269.402 209.98C-269.466 207.658 -269.498 205.328 -269.498 202.991C-269.498 200.654 -269.466 198.325 -269.402 196.003L-269.902 195.989C-269.772 191.308 -269.514 186.659 -269.13 182.045L-268.631 182.087C-268.244 177.432 -267.728 172.814 -267.087 168.236L-267.582 168.167C-266.934 163.535 -266.158 158.944 -265.259 154.398L-264.768 154.495C-263.863 149.919 -262.832 145.388 -261.679 140.906L-262.164 140.782C-260.999 136.255 -259.711 131.777 -258.302 127.354L-257.825 127.505C-256.411 123.063 -254.875 118.675 -253.221 114.346L-253.688 114.167C-252.022 109.806 -250.237 105.504 -248.337 101.264L-247.881 101.469C-245.976 97.2193 -243.956 93.0332 -241.824 88.9142L-242.268 88.6844C-240.124 84.5425 -237.867 80.4684 -235.501 76.4664L-235.07 76.7208C-232.703 72.7155 -230.226 68.7824 -227.644 64.9256L-228.059 64.6474C-225.466 60.7742 -222.767 56.9778 -219.967 53.2623L-219.568 53.5633C-216.768 49.8496 -213.867 46.2169 -210.869 42.6693L-211.251 42.3466C-208.243 38.789 -205.138 35.3169 -201.94 31.9345L-201.576 32.2781C-198.383 28.9015 -195.096 25.6144 -191.719 22.421L-192.063 22.0577C-188.68 18.8588 -185.208 15.7537 -181.651 12.7466L-181.328 13.1285C-177.78 10.1299 -174.148 7.22891 -170.434 4.42971L-170.735 4.03043C-167.019 1.22991 -163.223 -1.46892 -159.35 -4.06199L-159.072 -3.6465C-155.215 -6.22856 -151.282 -8.70551 -147.276 -11.0732L-147.531 -11.5036C-143.529 -13.8695 -139.455 -16.1265 -135.313 -18.2706L-135.083 -17.8266C-130.964 -19.9588 -126.778 -21.9791 -122.529 -23.8836L-122.733 -24.3398C-118.493 -26.2399 -114.191 -28.0248 -109.83 -29.6906L-109.651 -29.2236C-105.322 -30.8774 -100.934 -32.4136 -96.4922 -33.8282L-96.6439 -34.3047C-92.2203 -35.7135 -87.743 -37.002 -83.2158 -38.1664L-83.0912 -37.6822C-78.6095 -38.8349 -74.0789 -39.8658 -69.503 -40.7711L-69.6001 -41.2616C-65.0537 -42.161 -60.4627 -42.9366 -55.8309 -43.5848L-55.7617 -43.0897C-51.1837 -43.7304 -46.5655 -44.2463 -41.9109 -44.634L-41.9525 -45.1323C-37.3391 -45.5166 -32.6898 -45.7751 -28.0083 -45.9043L-27.9946 -45.4045C-25.673 -45.4686 -23.3434 -45.5009 -21.0063 -45.5009C-18.6691 -45.5009 -16.3395 -45.4686 -14.0179 -45.4045L-14.0042 -45.9043C-9.32268 -45.7751 -4.67349 -45.5166 -0.0600281 -45.1323L-0.101532 -44.634C4.55303 -44.2463 9.17111 -43.7304 13.7491 -43.0897L13.8185 -43.5848C18.4503 -42.9366 23.0412 -42.161 27.5876 -41.2616L27.4904 -40.7711C32.0663 -39.8658 36.597 -38.835 41.0787 -37.6822L41.2033 -38.1664C45.7304 -37.002 50.2077 -35.7135 54.6313 -34.3047L54.4796 -33.8283C58.9217 -32.4136 63.3096 -30.8774 67.6393 -29.2236L67.8177 -29.6907C72.1789 -28.0248 76.4814 -26.2399 80.7209 -24.3399L80.5164 -23.8836C84.7659 -21.9791 88.952 -19.9588 93.071 -17.8266L93.3008 -18.2706C97.4428 -16.1265 101.517 -13.8695 105.519 -11.5037L105.265 -11.0732C109.27 -8.70551 113.203 -6.22856 117.06 -3.64649L117.338 -4.06198C121.211 -1.46893 125.008 1.22992 128.723 4.03043L128.422 4.42971C132.136 7.22892 135.769 10.1299 139.316 13.1285L139.639 12.7466C143.197 15.7537 146.669 18.8588 150.051 22.0577L149.707 22.421C153.084 25.6144 156.371 28.9015 159.565 32.2781L159.928 31.9345C163.127 35.3169 166.232 38.789 169.239 42.3466L168.857 42.6693C171.856 46.2169 174.757 49.8496 177.556 53.5633L177.955 53.2623C180.756 56.9778 183.454 60.7742 186.047 64.6474L185.632 64.9256C188.214 68.7824 190.691 72.7155 193.059 76.7208L193.489 76.4663C195.855 80.4684 198.112 84.5424 200.256 88.6844L199.812 88.9142C201.944 93.0331 203.965 97.2193 205.869 101.469L206.325 101.264C208.225 105.504 210.01 109.806 211.676 114.167L211.209 114.346C212.863 118.675 214.399 123.063 215.814 127.505L216.29 127.354C217.699 131.777 218.987 136.255 220.152 140.782L219.668 140.906C220.82 145.388 221.851 149.919 222.757 154.495L223.247 154.397C224.146 158.944 224.922 163.535 225.57 168.167L225.075 168.236C225.716 172.814 226.232 177.432 226.62 182.087L227.118 182.045C227.502 186.658 227.761 191.308 227.89 195.989L227.39 196.003C227.454 198.325 227.486 200.654 227.486 202.991C227.486 205.328 227.454 207.658 227.39 209.98L227.89 209.993C227.761 214.675 227.502 219.324 227.118 223.937L226.62 223.896C226.232 228.551 225.716 233.169 225.075 237.747L225.57 237.816C224.922 242.448 224.146 247.039 223.247 251.585L222.757 251.488C221.851 256.064 220.82 260.595 219.668 265.076L220.152 265.201C218.988 269.728 217.699 274.205 216.29 278.629L215.814 278.477C214.399 282.919 212.863 287.307 211.209 291.637L211.676 291.815C210.01 296.176 208.225 300.479 206.325 304.718L205.869 304.514C203.965 308.763 201.944 312.949 199.812 317.068L200.256 317.298C198.112 321.44 195.855 325.514 193.489 329.516L193.059 329.262C190.691 333.267 188.214 337.2 185.632 341.057L186.047 341.335C183.454 345.208 180.756 349.005 177.955 352.72L177.556 352.419C174.757 356.133 171.856 359.766 168.857 363.313L169.239 363.636C166.232 367.194 163.127 370.666 159.928 374.048L159.565 373.705C156.371 377.081 153.084 380.368 149.707 383.562L150.051 383.925C146.669 387.124 143.197 390.229 139.639 393.236L139.316 392.854C135.769 395.853 132.136 398.754 128.422 401.553L128.723 401.952C125.008 404.753 121.211 407.452 117.338 410.045L117.06 409.629C113.203 412.211 109.27 414.688 105.265 417.056L105.519 417.486C101.517 419.852 97.4427 422.109 93.3008 424.253L93.071 423.809C88.9521 425.941 84.7658 427.962 80.5164 429.866L80.7209 430.323C76.4813 432.223 72.1789 434.007 67.8177 435.673L67.6393 435.206C63.3096 436.86 58.9217 438.396 54.4797 439.811L54.6314 440.287C50.2077 441.696 45.7304 442.985 41.2033 444.149L41.0789 443.665C36.5971 444.818 32.0664 445.848 27.4905 446.754L27.5876 447.244C23.0412 448.144 18.4502 448.919 13.8185 449.568L13.7492 449.072C9.17117 449.713 4.55311 450.229 -0.10144 450.617L-0.0599365 451.115Z" stroke="#163F7B" stroke-dasharray="13.64 13.64"/>
<g filter="url(#filter1_d_4622_12782)">
<path d="M38.606 1046.48C38.606 1151.25 123.536 1236.18 228.303 1236.18C333.07 1236.18 418 1151.25 418 1046.48C418 941.713 333.07 856.783 228.303 856.783C123.536 856.783 38.606 941.713 38.606 1046.48Z" fill="#0A1F44"/>
</g>
<g filter="url(#filter2_d_4622_12782)">
<path d="M218.194 1229.45C211.265 1230.62 204.208 1231.41 197.046 1231.81L197.018 1231.31C193.505 1231.51 189.965 1231.6 186.403 1231.6C182.841 1231.6 179.302 1231.51 175.789 1231.31L175.761 1231.81C168.598 1231.41 161.542 1230.62 154.612 1229.45L154.696 1228.96C147.659 1227.77 140.755 1226.2 134.005 1224.25L133.867 1224.74C127.007 1222.76 120.307 1220.41 113.79 1217.71L113.981 1217.25C107.416 1214.53 101.038 1211.44 94.8706 1208.03L94.6283 1208.47C88.4042 1205.02 82.3945 1201.23 76.624 1197.13L76.9137 1196.72C71.1378 1192.62 65.6023 1188.2 60.3325 1183.48L59.9991 1183.86C54.7091 1179.12 49.686 1174.1 44.9554 1168.81L45.3281 1168.48C40.6155 1163.21 36.1938 1157.67 32.0882 1151.9L31.6808 1152.19C27.5791 1146.42 23.792 1140.41 20.3448 1134.18L20.7822 1133.94C17.3663 1127.77 14.285 1121.39 11.5626 1114.83L11.1009 1115.02C8.39826 1108.5 6.04855 1101.8 4.0755 1094.94L4.55603 1094.81C2.61475 1088.06 1.03907 1081.15 -0.148191 1074.12L-0.64123 1074.2C-1.81042 1067.27 -2.60391 1060.21 -3 1053.05L-2.50076 1053.02C-2.69503 1049.51 -2.79348 1045.97 -2.79348 1042.41C-2.79348 1038.85 -2.69503 1035.31 -2.50076 1031.79L-3 1031.76C-2.60391 1024.6 -1.81042 1017.54 -0.64123 1010.61L-0.148188 1010.7C1.03904 1003.66 2.61472 996.756 4.55601 990.006L4.07551 989.868C6.04856 983.008 8.39826 976.308 11.1009 969.79L11.5626 969.982C14.285 963.417 17.3664 957.039 20.7822 950.871L20.3448 950.629C23.792 944.405 27.5791 938.395 31.6808 932.624L32.0882 932.914C36.1937 927.138 40.6154 921.603 45.3281 916.333L44.9553 916C49.686 910.71 54.709 905.687 59.9991 900.956L60.3325 901.329C65.6023 896.616 71.1378 892.194 76.9136 888.089L76.624 887.681C82.3944 883.58 88.4042 879.793 94.6283 876.345L94.8706 876.783C101.038 873.367 107.416 870.286 113.981 867.563L113.79 867.101C120.307 864.399 127.007 862.049 133.867 860.076L134.005 860.556C140.755 858.615 147.659 857.04 154.696 855.852L154.612 855.359C161.542 854.19 168.598 853.397 175.761 853L175.789 853.5C179.302 853.305 182.841 853.207 186.403 853.207C189.965 853.207 193.505 853.305 197.018 853.5L197.046 853C204.208 853.397 211.265 854.19 218.194 855.359L218.111 855.852C225.148 857.04 232.052 858.615 238.801 860.556L238.94 860.076C245.799 862.049 252.5 864.399 259.017 867.101L258.826 867.563C265.391 870.286 271.769 873.367 277.936 876.783L278.179 876.345C284.403 879.793 290.413 883.58 296.183 887.681L295.893 888.089C301.669 892.194 307.205 896.616 312.475 901.329L312.808 900.956C318.098 905.687 323.121 910.71 327.852 916L327.479 916.333C332.192 921.603 336.613 927.138 340.719 932.914L341.126 932.624C345.228 938.395 349.015 944.405 352.462 950.629L352.025 950.871C355.441 957.039 358.522 963.417 361.244 969.982L361.706 969.79C364.409 976.308 366.758 983.008 368.732 989.868L368.251 990.006C370.192 996.756 371.768 1003.66 372.955 1010.7L373.448 1010.61C374.617 1017.54 375.411 1024.6 375.807 1031.76L375.308 1031.79C375.502 1035.31 375.601 1038.85 375.601 1042.41C375.601 1045.97 375.502 1049.51 375.308 1053.02L375.807 1053.05C375.411 1060.21 374.617 1067.27 373.448 1074.2L372.955 1074.12C371.768 1081.15 370.192 1088.06 368.251 1094.81L368.732 1094.94C366.758 1101.8 364.409 1108.5 361.706 1115.02L361.244 1114.83C358.522 1121.39 355.441 1127.77 352.025 1133.94L352.462 1134.18C349.015 1140.41 345.228 1146.42 341.126 1152.19L340.719 1151.9C336.613 1157.67 332.192 1163.21 327.479 1168.48L327.852 1168.81C323.121 1174.1 318.098 1179.12 312.808 1183.86L312.475 1183.48C307.205 1188.2 301.669 1192.62 295.893 1196.72L296.183 1197.13C290.413 1201.23 284.403 1205.02 278.179 1208.47L277.936 1208.03C271.769 1211.44 265.391 1214.53 258.826 1217.25L259.017 1217.71C252.5 1220.41 245.8 1222.76 238.94 1224.74L238.801 1224.25C232.052 1226.2 225.148 1227.77 218.111 1228.96L218.194 1229.45Z" stroke="#163F7B" stroke-dasharray="20.29 20.29"/>
</g>
<g filter="url(#filter3_d_4622_12782)">
<path d="M717.111 919.809C837.571 919.809 935.223 822.157 935.223 701.697C935.223 581.238 837.571 483.586 717.111 483.586C596.652 483.586 499 581.238 499 701.697C499 822.157 596.652 919.809 717.111 919.809Z" fill="#0A1F44"/>
</g>
<g filter="url(#filter4_d_4622_12782)">
<path d="M867.742 695.511C868.911 702.44 869.705 709.497 870.101 716.66L869.602 716.687C869.796 720.201 869.894 723.74 869.894 727.302C869.894 730.864 869.796 734.403 869.602 737.916L870.101 737.944C869.705 745.107 868.911 752.164 867.742 759.093L867.249 759.01C866.062 766.046 864.486 772.95 862.545 779.7L863.025 779.838C861.052 786.698 858.703 793.398 856 799.916L855.538 799.724C852.816 806.289 849.734 812.667 846.319 818.835L846.756 819.077C843.309 825.301 839.522 831.311 835.42 837.082L835.013 836.792C830.907 842.568 826.485 848.103 821.773 853.373L822.145 853.706C817.415 858.996 812.392 864.019 807.102 868.75L806.768 868.377C801.499 873.09 795.963 877.512 790.187 881.617L790.477 882.025C784.706 886.127 778.697 889.913 772.473 893.361L772.23 892.923C766.063 896.339 759.684 899.421 753.119 902.143L753.311 902.605C746.794 905.307 740.093 907.657 733.233 909.63L733.095 909.15C726.346 911.091 719.441 912.666 712.405 913.854L712.488 914.347C705.559 915.516 698.502 916.309 691.339 916.706L691.312 916.206C687.798 916.401 684.259 916.499 680.697 916.499C677.135 916.499 673.596 916.401 670.083 916.206L670.055 916.706C662.892 916.309 655.835 915.516 648.906 914.347L648.989 913.854C641.953 912.667 635.049 911.091 628.299 909.15L628.161 909.63C621.301 907.657 614.601 905.307 608.083 902.605L608.275 902.143C601.71 899.421 595.332 896.339 589.164 892.923L588.922 893.361C582.698 889.913 576.688 886.127 570.917 882.025L571.207 881.617C565.431 877.512 559.896 873.09 554.626 868.377L554.293 868.75C549.003 864.019 543.98 858.996 539.249 853.706L539.622 853.373C534.909 848.103 530.487 842.568 526.382 836.792L525.974 837.082C521.873 831.311 518.086 825.301 514.638 819.077L515.076 818.835C511.66 812.668 508.579 806.289 505.856 799.724L505.394 799.916C502.692 793.399 500.342 786.698 498.369 779.838L498.85 779.7C496.908 772.95 495.333 766.046 494.145 759.01L493.652 759.093C492.483 752.164 491.69 745.107 491.293 737.944L491.793 737.917C491.598 734.403 491.5 730.864 491.5 727.302C491.5 723.74 491.598 720.201 491.793 716.687L491.293 716.66C491.69 709.497 492.483 702.44 493.652 695.511L494.145 695.594C495.333 688.558 496.908 681.653 498.849 674.904L498.369 674.766C500.342 667.906 502.692 661.205 505.394 654.688L505.856 654.88C508.579 648.315 511.66 641.936 515.076 635.769L514.638 635.527C518.086 629.303 521.873 623.293 525.974 617.522L526.382 617.812C530.487 612.036 534.909 606.501 539.622 601.231L539.249 600.897C543.98 595.607 549.003 590.584 554.293 585.854L554.626 586.226C559.896 581.514 565.431 577.092 571.207 572.987L570.917 572.579C576.688 568.477 582.698 564.69 588.922 561.243L589.164 561.681C595.332 558.265 601.71 555.183 608.275 552.461L608.083 551.999C614.601 549.297 621.301 546.947 628.161 544.974L628.299 545.454C635.049 543.513 641.953 541.937 648.989 540.75L648.906 540.257C655.835 539.088 662.892 538.294 670.055 537.898L670.083 538.398C673.596 538.203 677.135 538.105 680.697 538.105C684.259 538.105 687.798 538.203 691.312 538.398L691.339 537.898C698.502 538.294 705.559 539.088 712.488 540.257L712.405 540.75C719.441 541.937 726.346 543.513 733.095 545.454L733.233 544.974C740.093 546.947 746.794 549.297 753.311 551.999L753.119 552.461C759.684 555.183 766.063 558.265 772.23 561.681L772.472 561.243C778.697 564.69 784.706 568.477 790.477 572.579L790.187 572.987C795.963 577.092 801.498 581.514 806.768 586.226L807.102 585.854C812.392 590.584 817.415 595.607 822.145 600.897L821.773 601.231C826.485 606.501 830.907 612.036 835.012 617.812L835.42 617.522C839.522 623.293 843.309 629.302 846.756 635.527L846.319 635.769C849.734 641.936 852.816 648.315 855.538 654.88L856 654.688C858.703 661.205 861.052 667.906 863.025 674.766L862.545 674.904C864.486 681.653 866.062 688.558 867.249 695.594L867.742 695.511Z" stroke="#163F7B" stroke-dasharray="20.29 20.29"/>
</g>
<g filter="url(#filter5_f_4622_12782)">
<path d="M710.5 809.346C761.586 809.346 803 758.883 803 696.633C803 634.383 761.586 583.92 710.5 583.92C659.414 583.92 618 634.383 618 696.633C618 758.883 659.414 809.346 710.5 809.346Z" fill="#234EAD"/>
</g>
<g filter="url(#filter6_f_4622_12782)">
<path d="M240.003 1211C298.471 1211 345.869 1153.24 345.869 1082C345.869 1010.76 298.471 953 240.003 953C181.535 953 134.137 1010.76 134.137 1082C134.137 1153.24 181.535 1211 240.003 1211Z" fill="#234EAD"/>
</g>
<g filter="url(#filter7_d_4622_12782)">
<path d="M326.095 678.443C328.009 675.198 332.192 674.119 335.437 676.034C338.681 677.948 339.76 682.131 337.845 685.376C335.931 688.621 331.748 689.699 328.504 687.784C325.259 685.87 324.18 681.688 326.095 678.443Z" fill="#0A1F44"/>
</g>
<g filter="url(#filter8_d_4622_12782)">
<path d="M171.877 469.498C172.835 467.876 174.926 467.337 176.548 468.294C178.171 469.251 178.71 471.342 177.753 472.965C176.796 474.587 174.704 475.126 173.082 474.169C171.459 473.212 170.92 471.121 171.877 469.498Z" fill="#0A1F44"/>
</g>
<g filter="url(#filter9_d_4622_12782)">
<path d="M325.839 334.501C328.902 329.309 335.594 327.584 340.786 330.647C345.978 333.71 347.703 340.402 344.64 345.594C341.577 350.785 334.885 352.511 329.693 349.448C324.502 346.385 322.776 339.693 325.839 334.501Z" fill="#0A1F44"/>
</g>
<g filter="url(#filter10_d_4622_12782)">
<path d="M1521.89 278.855C1543.95 150.186 1457.52 27.9971 1328.86 5.93921C1200.19 -16.1187 1078 70.3071 1055.94 198.977C1033.88 327.646 1120.31 449.835 1248.98 471.892C1377.65 493.95 1499.83 407.525 1521.89 278.855Z" fill="#0A1F44"/>
</g>
<g filter="url(#filter11_d_4622_12782)">
<path d="M1351.02 61.1309C1358.6 61.1507 1366.24 61.5928 1373.91 62.4762L1373.85 63.0115C1377.61 63.4448 1381.4 63.9847 1385.18 64.6331C1388.96 65.2817 1392.7 66.0305 1396.4 66.8765L1396.51 66.3514C1404.05 68.0761 1411.41 70.2037 1418.55 72.7068L1418.37 73.2153C1425.63 75.7573 1432.68 78.6877 1439.49 81.9782L1439.72 81.4931C1446.65 84.8375 1453.33 88.5528 1459.76 92.6096L1459.47 93.0653C1465.95 97.1516 1472.17 101.585 1478.09 106.336L1478.43 105.915C1484.42 110.71 1490.11 115.826 1495.48 121.232L1495.11 121.613C1500.49 127.024 1505.57 132.728 1510.3 138.692L1510.73 138.357C1515.48 144.345 1519.9 150.594 1523.96 157.073L1523.51 157.359C1527.55 163.814 1531.25 170.497 1534.55 177.38L1535.04 177.146C1538.34 184.021 1541.27 191.093 1543.8 198.331L1543.29 198.509C1545.79 205.681 1547.91 213.015 1549.6 220.483L1550.13 220.364C1551.81 227.777 1553.09 235.321 1553.93 242.966L1553.4 243.025C1554.23 250.547 1554.65 258.166 1554.63 265.856L1555.17 265.857C1555.15 273.428 1554.7 281.067 1553.82 288.746L1553.28 288.685C1552.85 292.452 1552.31 296.229 1551.67 300.011C1551.01 303.794 1550.27 307.535 1549.41 311.231L1549.94 311.352C1548.22 318.886 1546.1 326.236 1543.58 333.383L1543.08 333.204C1540.54 340.461 1537.6 347.507 1534.32 354.321L1534.8 354.556C1531.46 361.482 1527.75 368.17 1523.68 374.599L1523.23 374.312C1519.15 380.788 1514.71 387.001 1509.96 392.929L1510.38 393.267C1505.58 399.249 1500.47 404.942 1495.06 410.324L1494.69 409.941C1489.27 415.329 1483.57 420.402 1477.6 425.141L1477.94 425.563C1471.95 430.319 1465.7 434.739 1459.23 438.8L1458.93 438.344C1452.48 442.39 1445.8 446.078 1438.91 449.386L1439.15 449.872C1432.28 453.178 1425.2 456.105 1417.97 458.633L1417.78 458.125C1410.62 460.629 1403.28 462.741 1395.81 464.437L1395.93 464.962C1388.52 466.646 1380.98 467.92 1373.33 468.767L1373.27 468.232C1365.75 469.065 1358.13 469.481 1350.44 469.461V470C1342.86 469.98 1335.22 469.538 1327.55 468.654L1327.61 468.119C1323.85 467.685 1320.06 467.146 1316.28 466.497C1312.5 465.849 1308.76 465.101 1305.07 464.254L1304.95 464.779C1297.4 463.054 1290.06 460.927 1282.91 458.424L1283.09 457.916C1275.83 455.374 1268.79 452.443 1261.98 449.152L1261.74 449.637C1254.81 446.294 1248.13 442.578 1241.7 438.521L1241.99 438.066C1235.51 433.979 1229.29 429.546 1223.37 424.795L1223.03 425.215C1217.04 420.421 1211.35 415.305 1205.98 409.898L1206.35 409.518C1200.97 404.107 1195.89 398.402 1191.15 392.438L1190.73 392.773C1185.98 386.785 1181.56 380.537 1177.5 374.058L1177.95 373.771C1173.91 367.317 1170.21 360.633 1166.91 353.751L1166.42 353.985C1163.11 347.109 1160.19 340.037 1157.66 332.8L1158.17 332.622C1155.67 325.45 1153.56 318.115 1151.86 310.647L1151.34 310.767C1149.65 303.353 1148.37 295.81 1147.53 288.165L1148.06 288.105C1147.23 280.584 1146.81 272.964 1146.83 265.276L1146.29 265.274C1146.31 257.702 1146.76 250.064 1147.64 242.384L1148.18 242.445C1148.61 238.678 1149.15 234.903 1149.79 231.12C1150.44 227.336 1151.2 223.595 1152.04 219.899L1151.52 219.78C1153.24 212.245 1155.37 204.894 1157.88 197.748L1158.38 197.927C1160.93 190.67 1163.86 183.624 1167.14 176.81L1166.66 176.575C1170 169.649 1173.72 162.96 1177.78 156.532L1178.23 156.818C1182.31 150.342 1186.75 144.129 1191.51 138.201L1191.09 137.864C1195.87 131.881 1200.99 126.189 1206.4 120.807L1206.77 121.189C1212.19 115.803 1217.89 110.729 1223.85 105.99L1223.52 105.568C1229.51 100.811 1235.76 96.3909 1242.24 92.33L1242.53 92.7865C1248.98 88.741 1255.66 85.0528 1262.55 81.7443L1262.31 81.2587C1269.18 77.9532 1276.25 75.0254 1283.49 72.4977L1283.68 73.0063C1290.84 70.5014 1298.18 68.3903 1305.65 66.6943L1305.53 66.1689C1312.94 64.4853 1320.48 63.2097 1328.13 62.3632L1328.19 62.8987C1335.71 62.0658 1343.33 61.6495 1351.02 61.6696V61.1309Z" stroke="#163F7B" stroke-dasharray="20.29 20.29"/>
</g>
<g filter="url(#filter12_f_4622_12782)">
<path d="M1377.26 244.157C1385.4 196.675 1345.1 150.142 1287.24 140.223C1229.38 130.305 1175.88 160.756 1167.74 208.239C1159.6 255.721 1199.9 302.254 1257.76 312.172C1315.62 322.091 1369.12 291.639 1377.26 244.157Z" fill="#234EAD"/>
</g>
<path d="M1550.08 853.415C1550.08 1009.33 1676.48 1135.72 1832.39 1135.72C1988.3 1135.72 2114.7 1009.33 2114.7 853.415C2114.7 697.502 1988.3 571.109 1832.39 571.109C1676.48 571.109 1550.08 697.502 1550.08 853.415Z" fill="#0A1F44"/>
<g filter="url(#filter13_f_4622_12782)">
<path d="M1832 1055C1906.56 1055 1967 981.351 1967 890.5C1967 799.649 1906.56 726 1832 726C1757.44 726 1697 799.649 1697 890.5C1697 981.351 1757.44 1055 1832 1055Z" fill="#234EAD"/>
</g>
<g filter="url(#filter14_d_4622_12782)">
<path d="M1704 364.822C1704 368.589 1707.06 371.643 1710.82 371.643C1714.59 371.643 1717.64 368.589 1717.64 364.822C1717.64 361.054 1714.59 358 1710.82 358C1707.06 358 1704 361.054 1704 364.822Z" fill="#0A1F44"/>
</g>
<g filter="url(#filter15_d_4622_12782)">
<path d="M1465 466.411C1465 468.295 1466.53 469.822 1468.41 469.822C1470.29 469.822 1471.82 468.295 1471.82 466.411C1471.82 464.527 1470.29 463 1468.41 463C1466.53 463 1465 464.527 1465 466.411Z" fill="#0A1F44"/>
</g>
<g filter="url(#filter16_d_4622_12782)">
<path d="M1528.99 660.915C1528.99 666.943 1533.88 671.829 1539.91 671.829C1545.94 671.829 1550.82 666.943 1550.82 660.915C1550.82 654.887 1545.94 650 1539.91 650C1533.88 650 1528.99 654.887 1528.99 660.915Z" fill="#0A1F44"/>
</g>
<path d="M1900.05 1067.63C1894.82 1068.06 1889.55 1068.36 1884.24 1068.5L1884.23 1068C1881.6 1068.07 1878.96 1068.11 1876.31 1068.11C1873.66 1068.11 1871.01 1068.07 1868.38 1068L1868.37 1068.5C1863.06 1068.36 1857.79 1068.06 1852.56 1067.63L1852.6 1067.13C1847.32 1066.69 1842.08 1066.1 1836.89 1065.38L1836.82 1065.87C1831.57 1065.14 1826.36 1064.26 1821.21 1063.24L1821.31 1062.75C1816.12 1061.72 1810.98 1060.55 1805.9 1059.24L1805.77 1059.73C1800.64 1058.41 1795.56 1056.95 1790.55 1055.35L1790.7 1054.87C1785.66 1053.27 1780.69 1051.53 1775.78 1049.65L1775.6 1050.12C1770.65 1048.23 1765.77 1046.21 1760.97 1044.05L1761.17 1043.6C1756.35 1041.44 1751.61 1039.15 1746.93 1036.73L1746.7 1037.17C1742.01 1034.74 1737.39 1032.18 1732.85 1029.5L1733.11 1029.07C1728.56 1026.38 1724.1 1023.57 1719.73 1020.65L1719.45 1021.06C1715.06 1018.12 1710.76 1015.06 1706.54 1011.89L1706.84 1011.49C1702.63 1008.31 1698.51 1005.02 1694.49 1001.62L1694.17 1002C1690.13 998.594 1686.2 995.074 1682.36 991.447L1682.71 991.084C1678.88 987.462 1675.15 983.735 1671.53 979.905L1671.16 980.249C1667.54 976.414 1664.02 972.477 1660.61 968.444L1660.99 968.121C1657.59 964.098 1654.3 959.978 1651.12 955.767L1650.72 956.068C1647.55 951.855 1644.49 947.551 1641.55 943.159L1641.97 942.881C1639.04 938.507 1636.23 934.047 1633.54 929.505L1633.11 929.759C1630.43 925.221 1627.87 920.602 1625.44 915.906L1625.88 915.676C1623.47 911.005 1621.18 906.258 1619.02 901.439L1618.56 901.643C1616.4 896.837 1614.38 891.959 1612.49 887.014L1612.96 886.835C1611.08 881.925 1609.34 876.949 1607.74 871.912L1607.26 872.063C1605.66 867.048 1604.2 861.971 1602.88 856.839L1603.37 856.714C1602.06 851.631 1600.89 846.493 1599.86 841.304L1599.37 841.401C1598.35 836.246 1597.47 831.041 1596.74 825.79L1597.23 825.721C1596.51 820.529 1595.92 815.292 1595.48 810.013L1594.98 810.054C1594.55 804.824 1594.26 799.553 1594.11 794.245L1594.61 794.231C1594.54 791.598 1594.5 788.956 1594.5 786.306C1594.5 783.655 1594.54 781.013 1594.61 778.381L1594.11 778.367C1594.26 773.059 1594.55 767.788 1594.98 762.557L1595.48 762.599C1595.92 757.32 1596.51 752.083 1597.23 746.891L1596.74 746.822C1597.47 741.57 1598.35 736.365 1599.37 731.21L1599.86 731.307C1600.89 726.118 1602.06 720.98 1603.37 715.897L1602.88 715.773C1604.2 710.64 1605.66 705.564 1607.26 700.548L1607.74 700.7C1609.34 695.662 1611.08 690.686 1612.96 685.776L1612.49 685.598C1614.38 680.653 1616.4 675.775 1618.56 670.968L1619.02 671.173C1621.18 666.354 1623.47 661.606 1625.88 656.935L1625.44 656.705C1627.87 652.009 1630.43 647.39 1633.11 642.852L1633.54 643.107C1636.23 638.565 1639.04 634.104 1641.97 629.73L1641.55 629.452C1644.49 625.061 1647.55 620.756 1650.73 616.544L1651.12 616.845C1654.3 612.633 1657.59 608.514 1660.99 604.49L1660.61 604.168C1664.02 600.134 1667.54 596.197 1671.16 592.363L1671.53 592.706C1675.15 588.877 1678.88 585.149 1682.71 581.528L1682.36 581.164C1686.2 577.537 1690.13 574.017 1694.17 570.608L1694.49 570.989C1698.51 567.589 1702.63 564.299 1706.84 561.124L1706.54 560.725C1710.76 557.55 1715.06 554.49 1719.45 551.55L1719.73 551.966C1724.1 549.037 1728.56 546.228 1733.11 543.543L1732.85 543.113C1737.39 540.43 1742.01 537.871 1746.71 535.44L1746.93 535.884C1751.61 533.466 1756.35 531.175 1761.17 529.015L1760.97 528.559C1765.77 526.405 1770.65 524.381 1775.6 522.492L1775.78 522.96C1780.69 521.084 1785.66 519.342 1790.7 517.738L1790.55 517.261C1795.56 515.664 1800.64 514.203 1805.77 512.883L1805.9 513.367C1810.98 512.06 1816.12 510.891 1821.31 509.864L1821.21 509.373C1826.36 508.354 1831.57 507.474 1836.82 506.739L1836.89 507.234C1842.08 506.508 1847.32 505.923 1852.6 505.483L1852.56 504.985C1857.79 504.549 1863.06 504.256 1868.37 504.109L1868.38 504.609C1871.01 504.537 1873.66 504.5 1876.31 504.5C1878.96 504.5 1881.6 504.537 1884.23 504.609L1884.24 504.109C1889.55 504.256 1894.82 504.549 1900.05 504.985L1900.01 505.483C1905.29 505.923 1910.53 506.508 1915.72 507.234L1915.79 506.739C1921.04 507.474 1926.25 508.354 1931.4 509.373L1931.3 509.864C1936.49 510.891 1941.63 512.06 1946.71 513.367L1946.84 512.883C1951.97 514.203 1957.05 515.664 1962.06 517.261L1961.91 517.738C1966.95 519.342 1971.93 521.084 1976.84 522.96L1977.01 522.492C1981.96 524.381 1986.84 526.405 1991.64 528.559L1991.44 529.015C1996.26 531.175 2001.01 533.466 2005.68 535.884L2005.91 535.44C2010.6 537.871 2015.22 540.43 2019.76 543.113L2019.5 543.543C2024.05 546.228 2028.51 549.037 2032.88 551.966L2033.16 551.55C2037.55 554.49 2041.85 557.55 2046.07 560.725L2045.77 561.124C2049.98 564.299 2054.1 567.589 2058.12 570.989L2058.44 570.608C2062.48 574.017 2066.41 577.538 2070.25 581.164L2069.91 581.528C2073.73 585.149 2077.46 588.877 2081.08 592.706L2081.45 592.363C2085.07 596.198 2088.59 600.134 2092 604.168L2091.62 604.491C2095.02 608.514 2098.31 612.633 2101.49 616.845L2101.89 616.544C2105.06 620.757 2108.12 625.061 2111.06 629.452L2110.65 629.73C2113.57 634.104 2116.38 638.565 2119.07 643.107L2119.5 642.853C2122.18 647.39 2124.74 652.009 2127.17 656.705L2126.73 656.935C2129.14 661.606 2131.44 666.354 2133.6 671.173L2134.05 670.968C2136.21 675.775 2138.23 680.653 2140.12 685.598L2139.65 685.776C2141.53 690.686 2143.27 695.662 2144.87 700.7L2145.35 700.548C2146.95 705.564 2148.41 710.64 2149.73 715.773L2149.24 715.897C2150.55 720.98 2151.72 726.118 2152.75 731.307L2153.24 731.21C2154.26 736.365 2155.14 741.57 2155.87 746.822L2155.38 746.891C2156.1 752.083 2156.69 757.32 2157.13 762.599L2157.63 762.557C2158.06 767.788 2158.36 773.059 2158.5 778.367L2158 778.381C2158.07 781.013 2158.11 783.655 2158.11 786.306C2158.11 788.956 2158.07 791.598 2158 794.231L2158.5 794.245C2158.36 799.552 2158.06 804.824 2157.63 810.054L2157.13 810.013C2156.69 815.291 2156.1 820.529 2155.38 825.72L2155.87 825.79C2155.14 831.041 2154.26 836.246 2153.24 841.401L2152.75 841.304C2151.72 846.493 2150.55 851.631 2149.24 856.714L2149.73 856.838C2148.41 861.971 2146.95 867.048 2145.35 872.063L2144.87 871.911C2143.27 876.949 2141.53 881.925 2139.65 886.835L2140.12 887.014C2138.23 891.958 2136.21 896.836 2134.05 901.643L2133.6 901.439C2131.44 906.258 2129.14 911.005 2126.73 915.676L2127.17 915.906C2124.74 920.602 2122.18 925.221 2119.5 929.759L2119.07 929.505C2116.38 934.047 2113.57 938.507 2110.65 942.881L2111.06 943.159C2108.12 947.551 2105.06 951.855 2101.89 956.068L2101.49 955.767C2098.31 959.978 2095.02 964.098 2091.62 968.121L2092 968.444C2088.59 972.477 2085.07 976.414 2081.45 980.249L2081.08 979.905C2077.46 983.735 2073.73 987.462 2069.91 991.084L2070.25 991.447C2066.41 995.074 2062.48 998.595 2058.44 1002L2058.12 1001.62C2054.1 1005.02 2049.98 1008.31 2045.77 1011.49L2046.07 1011.89C2041.85 1015.06 2037.55 1018.12 2033.16 1021.06L2032.88 1020.65C2028.51 1023.57 2024.05 1026.38 2019.5 1029.07L2019.76 1029.5C2015.22 1032.18 2010.6 1034.74 2005.91 1037.17L2005.68 1036.73C2001.01 1039.15 1996.26 1041.44 1991.44 1043.6L1991.64 1044.05C1986.84 1046.21 1981.96 1048.23 1977.01 1050.12L1976.84 1049.65C1971.93 1051.53 1966.95 1053.27 1961.91 1054.87L1962.06 1055.35C1957.05 1056.95 1951.97 1058.41 1946.84 1059.73L1946.71 1059.24C1941.63 1060.55 1936.49 1061.72 1931.3 1062.75L1931.4 1063.24C1926.25 1064.26 1921.04 1065.14 1915.79 1065.87L1915.72 1065.38C1910.53 1066.1 1905.29 1066.69 1900.01 1067.13L1900.05 1067.63Z" stroke="#163F7B" stroke-dasharray="15.47 15.47"/>
</g>
<defs>
<filter id="filter0_f_4622_12782" x="-243.731" y="-191.811" width="500.462" height="556.622" filterUnits="userSpaceOnUse" color-interpolation-filters="sRGB">
<feFlood flood-opacity="0" result="BackgroundImageFix"/>
<feBlend mode="normal" in="SourceGraphic" in2="BackgroundImageFix" result="shape"/>
<feGaussianBlur stdDeviation="60.8654" result="effect1_foregroundBlur_4622_12782"/>
</filter>
<filter id="filter1_d_4622_12782" x="24.8093" y="856.783" width="406.987" height="406.986" filterUnits="userSpaceOnUse" color-interpolation-filters="sRGB">
<feFlood flood-opacity="0" result="BackgroundImageFix"/>
<feColorMatrix in="SourceAlpha" type="matrix" values="0 0 0 0 0 0 0 0 0 0 0 0 0 0 0 0 0 0 127 0" result="hardAlpha"/>
<feOffset dy="13.7962"/>
<feGaussianBlur stdDeviation="6.89808"/>
<feComposite in2="hardAlpha" operator="out"/>
<feColorMatrix type="matrix" values="0 0 0 0 0.024407 0 0 0 0 0.371844 0 0 0 0 0.80752 0 0 0 0.1 0"/>
<feBlend mode="normal" in2="BackgroundImageFix" result="effect1_dropShadow_4622_12782"/>
<feBlend mode="normal" in="SourceGraphic" in2="effect1_dropShadow_4622_12782" result="shape"/>
</filter>
<filter id="filter2_d_4622_12782" x="-17.3235" y="852.473" width="407.452" height="407.454" filterUnits="userSpaceOnUse" color-interpolation-filters="sRGB">
<feFlood flood-opacity="0" result="BackgroundImageFix"/>
<feColorMatrix in="SourceAlpha" type="matrix" values="0 0 0 0 0 0 0 0 0 0 0 0 0 0 0 0 0 0 127 0" result="hardAlpha"/>
<feOffset dy="13.7962"/>
<feGaussianBlur stdDeviation="6.89808"/>
<feComposite in2="hardAlpha" operator="out"/>
<feColorMatrix type="matrix" values="0 0 0 0 0.024407 0 0 0 0 0.371844 0 0 0 0 0.80752 0 0 0 0.1 0"/>
<feBlend mode="normal" in2="BackgroundImageFix" result="effect1_dropShadow_4622_12782"/>
<feBlend mode="normal" in="SourceGraphic" in2="effect1_dropShadow_4622_12782" result="shape"/>
</filter>
<filter id="filter3_d_4622_12782" x="485.204" y="483.586" width="463.815" height="463.815" filterUnits="userSpaceOnUse" color-interpolation-filters="sRGB">
<feFlood flood-opacity="0" result="BackgroundImageFix"/>
<feColorMatrix in="SourceAlpha" type="matrix" values="0 0 0 0 0 0 0 0 0 0 0 0 0 0 0 0 0 0 127 0" result="hardAlpha"/>
<feOffset dy="13.7962"/>
<feGaussianBlur stdDeviation="6.89808"/>
<feComposite in2="hardAlpha" operator="out"/>
<feColorMatrix type="matrix" values="0 0 0 0 0.024407 0 0 0 0 0.371844 0 0 0 0 0.80752 0 0 0 0.1 0"/>
<feBlend mode="normal" in2="BackgroundImageFix" result="effect1_dropShadow_4622_12782"/>
<feBlend mode="normal" in="SourceGraphic" in2="effect1_dropShadow_4622_12782" result="shape"/>
</filter>
<filter id="filter4_d_4622_12782" x="476.969" y="537.371" width="407.456" height="407.455" filterUnits="userSpaceOnUse" color-interpolation-filters="sRGB">
<feFlood flood-opacity="0" result="BackgroundImageFix"/>
<feColorMatrix in="SourceAlpha" type="matrix" values="0 0 0 0 0 0 0 0 0 0 0 0 0 0 0 0 0 0 127 0" result="hardAlpha"/>
<feOffset dy="13.7962"/>
<feGaussianBlur stdDeviation="6.89808"/>
<feComposite in2="hardAlpha" operator="out"/>
<feColorMatrix type="matrix" values="0 0 0 0 0.024407 0 0 0 0 0.371844 0 0 0 0 0.80752 0 0 0 0.1 0"/>
<feBlend mode="normal" in2="BackgroundImageFix" result="effect1_dropShadow_4622_12782"/>
<feBlend mode="normal" in="SourceGraphic" in2="effect1_dropShadow_4622_12782" result="shape"/>
</filter>
<filter id="filter5_f_4622_12782" x="496.269" y="462.189" width="428.462" height="468.887" filterUnits="userSpaceOnUse" color-interpolation-filters="sRGB">
<feFlood flood-opacity="0" result="BackgroundImageFix"/>
<feBlend mode="normal" in="SourceGraphic" in2="BackgroundImageFix" result="shape"/>
<feGaussianBlur stdDeviation="60.8654" result="effect1_foregroundBlur_4622_12782"/>
</filter>
<filter id="filter6_f_4622_12782" x="12.4059" y="831.269" width="455.196" height="501.462" filterUnits="userSpaceOnUse" color-interpolation-filters="sRGB">
<feFlood flood-opacity="0" result="BackgroundImageFix"/>
<feBlend mode="normal" in="SourceGraphic" in2="BackgroundImageFix" result="shape"/>
<feGaussianBlur stdDeviation="60.8654" result="effect1_foregroundBlur_4622_12782"/>
</filter>
<filter id="filter7_d_4622_12782" x="324.521" y="675.086" width="14.8991" height="14.9011" filterUnits="userSpaceOnUse" color-interpolation-filters="sRGB">
<feFlood flood-opacity="0" result="BackgroundImageFix"/>
<feColorMatrix in="SourceAlpha" type="matrix" values="0 0 0 0 0 0 0 0 0 0 0 0 0 0 0 0 0 0 127 0" result="hardAlpha"/>
<feOffset dy="0.627284"/>
<feGaussianBlur stdDeviation="0.313642"/>
<feComposite in2="hardAlpha" operator="out"/>
<feColorMatrix type="matrix" values="0 0 0 0 0.024407 0 0 0 0 0.371844 0 0 0 0 0.80752 0 0 0 0.1 0"/>
<feBlend mode="normal" in2="BackgroundImageFix" result="effect1_dropShadow_4622_12782"/>
<feBlend mode="normal" in="SourceGraphic" in2="effect1_dropShadow_4622_12782" result="shape"/>
</filter>
<filter id="filter8_d_4622_12782" x="170.775" y="467.82" width="8.07879" height="8.07683" filterUnits="userSpaceOnUse" color-interpolation-filters="sRGB">
<feFlood flood-opacity="0" result="BackgroundImageFix"/>
<feColorMatrix in="SourceAlpha" type="matrix" values="0 0 0 0 0 0 0 0 0 0 0 0 0 0 0 0 0 0 127 0" result="hardAlpha"/>
<feOffset dy="0.627284"/>
<feGaussianBlur stdDeviation="0.313642"/>
<feComposite in2="hardAlpha" operator="out"/>
<feColorMatrix type="matrix" values="0 0 0 0 0.024407 0 0 0 0 0.371844 0 0 0 0 0.80752 0 0 0 0.1 0"/>
<feBlend mode="normal" in2="BackgroundImageFix" result="effect1_dropShadow_4622_12782"/>
<feBlend mode="normal" in="SourceGraphic" in2="effect1_dropShadow_4622_12782" result="shape"/>
</filter>
<filter id="filter9_d_4622_12782" x="323.132" y="329.131" width="24.2157" height="24.2157" filterUnits="userSpaceOnUse" color-interpolation-filters="sRGB">
<feFlood flood-opacity="0" result="BackgroundImageFix"/>
<feColorMatrix in="SourceAlpha" type="matrix" values="0 0 0 0 0 0 0 0 0 0 0 0 0 0 0 0 0 0 127 0" result="hardAlpha"/>
<feOffset dy="1.19184"/>
<feGaussianBlur stdDeviation="0.595919"/>
<feComposite in2="hardAlpha" operator="out"/>
<feColorMatrix type="matrix" values="0 0 0 0 0.024407 0 0 0 0 0.371844 0 0 0 0 0.80752 0 0 0 0.1 0"/>
<feBlend mode="normal" in2="BackgroundImageFix" result="effect1_dropShadow_4622_12782"/>
<feBlend mode="normal" in="SourceGraphic" in2="effect1_dropShadow_4622_12782" result="shape"/>
</filter>
<filter id="filter10_d_4622_12782" x="1038.71" y="2.50195" width="500.417" height="500.42" filterUnits="userSpaceOnUse" color-interpolation-filters="sRGB">
<feFlood flood-opacity="0" result="BackgroundImageFix"/>
<feColorMatrix in="SourceAlpha" type="matrix" values="0 0 0 0 0 0 0 0 0 0 0 0 0 0 0 0 0 0 127 0" result="hardAlpha"/>
<feOffset dy="13.7962"/>
<feGaussianBlur stdDeviation="6.89808"/>
<feComposite in2="hardAlpha" operator="out"/>
<feColorMatrix type="matrix" values="0 0 0 0 0.024407 0 0 0 0 0.371844 0 0 0 0 0.80752 0 0 0 0.1 0"/>
<feBlend mode="normal" in2="BackgroundImageFix" result="effect1_dropShadow_4622_12782"/>
<feBlend mode="normal" in="SourceGraphic" in2="effect1_dropShadow_4622_12782" result="shape"/>
</filter>
<filter id="filter11_d_4622_12782" x="1132" y="60.6289" width="437.467" height="437.465" filterUnits="userSpaceOnUse" color-interpolation-filters="sRGB">
<feFlood flood-opacity="0" result="BackgroundImageFix"/>
<feColorMatrix in="SourceAlpha" type="matrix" values="0 0 0 0 0 0 0 0 0 0 0 0 0 0 0 0 0 0 127 0" result="hardAlpha"/>
<feOffset dy="13.7962"/>
<feGaussianBlur stdDeviation="6.89808"/>
<feComposite in2="hardAlpha" operator="out"/>
<feColorMatrix type="matrix" values="0 0 0 0 0.024407 0 0 0 0 0.371844 0 0 0 0 0.80752 0 0 0 0.1 0"/>
<feBlend mode="normal" in2="BackgroundImageFix" result="effect1_dropShadow_4622_12782"/>
<feBlend mode="normal" in="SourceGraphic" in2="effect1_dropShadow_4622_12782" result="shape"/>
</filter>
<filter id="filter12_f_4622_12782" x="1044.96" y="16.6188" width="455.071" height="419.157" filterUnits="userSpaceOnUse" color-interpolation-filters="sRGB">
<feFlood flood-opacity="0" result="BackgroundImageFix"/>
<feBlend mode="normal" in="SourceGraphic" in2="BackgroundImageFix" result="shape"/>
<feGaussianBlur stdDeviation="60.8654" result="effect1_foregroundBlur_4622_12782"/>
</filter>
<filter id="filter13_f_4622_12782" x="1575.27" y="604.269" width="513.462" height="572.462" filterUnits="userSpaceOnUse" color-interpolation-filters="sRGB">
<feFlood flood-opacity="0" result="BackgroundImageFix"/>
<feBlend mode="normal" in="SourceGraphic" in2="BackgroundImageFix" result="shape"/>
<feGaussianBlur stdDeviation="60.8654" result="effect1_foregroundBlur_4622_12782"/>
</filter>
<filter id="filter14_d_4622_12782" x="1703.37" y="358" width="14.8991" height="14.8971" filterUnits="userSpaceOnUse" color-interpolation-filters="sRGB">
<feFlood flood-opacity="0" result="BackgroundImageFix"/>
<feColorMatrix in="SourceAlpha" type="matrix" values="0 0 0 0 0 0 0 0 0 0 0 0 0 0 0 0 0 0 127 0" result="hardAlpha"/>
<feOffset dy="0.627284"/>
<feGaussianBlur stdDeviation="0.313642"/>
<feComposite in2="hardAlpha" operator="out"/>
<feColorMatrix type="matrix" values="0 0 0 0 0.024407 0 0 0 0 0.371844 0 0 0 0 0.80752 0 0 0 0.1 0"/>
<feBlend mode="normal" in2="BackgroundImageFix" result="effect1_dropShadow_4622_12782"/>
<feBlend mode="normal" in="SourceGraphic" in2="effect1_dropShadow_4622_12782" result="shape"/>
</filter>
<filter id="filter15_d_4622_12782" x="1464.37" y="463" width="8.07488" height="8.07683" filterUnits="userSpaceOnUse" color-interpolation-filters="sRGB">
<feFlood flood-opacity="0" result="BackgroundImageFix"/>
<feColorMatrix in="SourceAlpha" type="matrix" values="0 0 0 0 0 0 0 0 0 0 0 0 0 0 0 0 0 0 127 0" result="hardAlpha"/>
<feOffset dy="0.627284"/>
<feGaussianBlur stdDeviation="0.313642"/>
<feComposite in2="hardAlpha" operator="out"/>
<feColorMatrix type="matrix" values="0 0 0 0 0.024407 0 0 0 0 0.371844 0 0 0 0 0.80752 0 0 0 0.1 0"/>
<feBlend mode="normal" in2="BackgroundImageFix" result="effect1_dropShadow_4622_12782"/>
<feBlend mode="normal" in="SourceGraphic" in2="effect1_dropShadow_4622_12782" result="shape"/>
</filter>
<filter id="filter16_d_4622_12782" x="1527.8" y="650" width="24.2118" height="24.2128" filterUnits="userSpaceOnUse" color-interpolation-filters="sRGB">
<feFlood flood-opacity="0" result="BackgroundImageFix"/>
<feColorMatrix in="SourceAlpha" type="matrix" values="0 0 0 0 0 0 0 0 0 0 0 0 0 0 0 0 0 0 127 0" result="hardAlpha"/>
<feOffset dy="1.19184"/>
<feGaussianBlur stdDeviation="0.595919"/>
<feComposite in2="hardAlpha" operator="out"/>
<feColorMatrix type="matrix" values="0 0 0 0 0.024407 0 0 0 0 0.371844 0 0 0 0 0.80752 0 0 0 0.1 0"/>
<feBlend mode="normal" in2="BackgroundImageFix" result="effect1_dropShadow_4622_12782"/>
<feBlend mode="normal" in="SourceGraphic" in2="effect1_dropShadow_4622_12782" result="shape"/>
</filter>
<clipPath id="clip0_4622_12782">
<rect width="1916" height="1024" fill="white"/>
</clipPath>
</defs>
</svg>
