<svg width="375" height="278" viewBox="0 0 375 278" fill="none" xmlns="http://www.w3.org/2000/svg">
<rect width="375" height="277.331" rx="10.2859" fill="#F5F6F9"/>
<path d="M183.917 136.667C184.883 136.667 185.667 135.883 185.667 134.917C185.667 133.95 184.883 133.167 183.917 133.167C182.95 133.167 182.167 133.95 182.167 134.917C182.167 135.883 182.95 136.667 183.917 136.667Z" fill="#B0B7C3"/>
<path fill-rule="evenodd" clip-rule="evenodd" d="M185.505 127.5H190.495C191.881 127.5 192.983 127.5 193.872 127.574C194.782 127.649 195.557 127.808 196.266 128.176C197.362 128.745 198.255 129.638 198.824 130.734C199.192 131.443 199.351 132.218 199.426 133.128C199.5 134.017 199.5 135.119 199.5 136.505V141.498C199.5 141.833 199.5 142.152 199.499 142.455C199.5 142.487 199.5 142.52 199.499 142.553C199.495 143.458 199.48 144.222 199.426 144.872C199.351 145.782 199.192 146.557 198.824 147.266C198.255 148.362 197.362 149.255 196.266 149.824C195.557 150.192 194.782 150.351 193.872 150.426C192.983 150.5 191.881 150.5 190.495 150.5H185.506C184.12 150.5 183.017 150.5 182.128 150.426C181.218 150.351 180.443 150.192 179.734 149.824C178.638 149.255 177.745 148.362 177.176 147.266C176.808 146.557 176.649 145.782 176.574 144.872C176.5 143.983 176.5 142.881 176.5 141.495V136.505C176.5 135.119 176.5 134.017 176.574 133.128C176.649 132.218 176.808 131.443 177.176 130.734C177.745 129.638 178.638 128.745 179.734 128.176C180.443 127.808 181.218 127.649 182.128 127.574C183.017 127.5 184.119 127.5 185.505 127.5ZM197.5 136.55V140.012L195.474 137.898C194.684 137.074 193.365 137.078 192.579 137.906L186.885 143.91L184.839 141.436C184.017 140.442 182.482 140.475 181.703 141.503L178.672 145.504C178.627 145.277 178.593 145.015 178.567 144.706C178.501 143.91 178.5 142.891 178.5 141.45V136.55C178.5 135.109 178.501 134.09 178.567 133.294C178.632 132.51 178.755 132.031 178.95 131.656C179.33 130.926 179.926 130.33 180.656 129.95C181.031 129.755 181.51 129.632 182.294 129.567C183.09 129.501 184.109 129.5 185.55 129.5H190.45C191.891 129.5 192.91 129.501 193.706 129.567C194.49 129.632 194.969 129.755 195.344 129.95C196.074 130.33 196.67 130.926 197.05 131.656C197.245 132.031 197.368 132.51 197.433 133.294C197.499 134.09 197.5 135.109 197.5 136.55ZM180.656 148.05C180.321 147.876 180.015 147.657 179.745 147.4L183.297 142.711L185.343 145.184C186.108 146.109 187.51 146.157 188.336 145.286L194.03 139.282L197.496 142.898C197.49 143.621 197.474 144.207 197.433 144.706C197.368 145.49 197.245 145.969 197.05 146.344C196.67 147.074 196.074 147.67 195.344 148.05C194.969 148.245 194.49 148.368 193.706 148.433C192.91 148.499 191.891 148.5 190.45 148.5H185.55C184.109 148.5 183.09 148.499 182.294 148.433C181.51 148.368 181.031 148.245 180.656 148.05Z" fill="#B0B7C3"/>
</svg>
