<svg viewBox="0 0 12 10" fill="none" xmlns="http://www.w3.org/2000/svg">
<path fill-rule="evenodd" clip-rule="evenodd" d="M5.12208 0.609526C5.5011 -0.0853373 6.49886 -0.0853367 6.87787 0.609527L11.1933 8.5212C11.5568 9.18758 11.0745 10.0001 10.3154 10.0001H1.68452C0.925459 10.0001 0.443146 9.18757 0.806623 8.5212L5.12208 0.609526ZM5.5476 7.75005C5.5476 7.47391 5.77145 7.25005 6.0476 7.25005C6.32374 7.25005 6.5476 7.47391 6.5476 7.75005C6.5476 8.02619 6.32374 8.25005 6.0476 8.25005C5.77145 8.25005 5.5476 8.02619 5.5476 7.75005ZM6.0476 3.50005C5.77145 3.50005 5.5476 3.72391 5.5476 4.00005V6.00005C5.5476 6.27619 5.77145 6.50005 6.0476 6.50005C6.32374 6.50005 6.5476 6.27619 6.5476 6.00005V4.00005C6.5476 3.72391 6.32374 3.50005 6.0476 3.50005Z" fill="#DD2727"/>
</svg>
