<svg width="144" height="43" viewBox="0 0 144 43" fill="none" xmlns="http://www.w3.org/2000/svg">
<path d="M138.667 42.7357H5.33334C2.40004 42.7357 0 40.3318 0 37.3937V5.34198C0 2.40388 2.39999 0 5.33334 0H138.667C141.6 0 144 2.40388 144 5.34198V37.3937C144 40.3318 141.6 42.7357 138.667 42.7357" fill="black"/>
<path d="M138.667 0H5.33334C2.40004 0 0 2.40388 0 5.34198V37.3937C0 40.3318 2.39999 42.7357 5.33334 42.7357H138.667C141.6 42.7357 144 40.3318 144 37.3937V5.34198C144 2.40388 141.6 0 138.667 0H138.667ZM138.667 0.854687C141.137 0.854687 143.147 2.868 143.147 5.34198V37.3937C143.147 39.8682 141.137 41.8814 138.667 41.8814H5.33334C2.86339 41.8814 0.853342 39.8681 0.853342 37.3937V5.34198C0.853342 2.868 2.86334 0.854735 5.33334 0.854735H138.667" fill="#A6A6A6"/>
<path d="M50.5803 10.9438C50.5803 11.8389 50.3156 12.5517 49.7856 13.0834C49.1835 13.7157 48.3989 14.0321 47.4343 14.0321C46.5106 14.0321 45.7252 13.7116 45.0793 13.0697C44.4323 12.4282 44.1094 11.6328 44.1094 10.6837C44.1094 9.73428 44.4323 8.93932 45.0793 8.29735C45.7252 7.65595 46.5106 7.33496 47.4343 7.33496C47.8927 7.33496 48.3315 7.42475 48.7481 7.6038C49.1647 7.78329 49.4989 8.02154 49.749 8.31991L49.1864 8.88372C48.7627 8.37667 48.1794 8.12334 47.4343 8.12334C46.7606 8.12334 46.1781 8.36044 45.6865 8.83494C45.1947 9.30991 44.9489 9.92586 44.9489 10.6837C44.9489 11.4417 45.1947 12.0576 45.6865 12.5326C46.1781 13.0071 46.7606 13.2442 47.4343 13.2442C48.149 13.2442 48.7448 13.0058 49.2218 12.5284C49.5315 12.2174 49.7106 11.7851 49.7585 11.23H47.4342V10.46H50.5356C50.5656 10.6275 50.5802 10.7881 50.5802 10.9438" fill="white"/>
<path d="M50.5794 10.9442H50.4727C50.4719 11.8189 50.2168 12.4983 49.7093 13.0083L49.7082 13.0092L49.7077 13.01C49.1248 13.6205 48.3755 13.9244 47.4334 13.9257C46.5344 13.9244 45.7818 13.6172 45.1534 12.9945C44.5264 12.3706 44.2164 11.6089 44.2152 10.6841C44.2164 9.75892 44.5264 8.99767 45.1534 8.37418C45.7818 7.75108 46.5344 7.44349 47.4334 7.44219C47.8781 7.44219 48.3014 7.5291 48.7051 7.70224C49.1093 7.87673 49.4285 8.10539 49.6664 8.38926L49.7481 8.32031L49.6727 8.24478L49.1101 8.80897L49.1855 8.88411L49.2677 8.81574C48.8243 8.28357 48.2019 8.01531 47.4335 8.01689C46.7348 8.01603 46.1202 8.2661 45.6118 8.7586C45.0985 9.25268 44.8406 9.9033 44.8415 10.6841C44.8406 11.465 45.0985 12.1156 45.6118 12.6097C46.1202 13.1022 46.7348 13.3523 47.4334 13.3514C48.1718 13.3527 48.801 13.1018 49.2964 12.6044C49.6272 12.2721 49.8148 11.8118 49.864 11.2396L49.8739 11.1236H47.5401V10.5673H50.5348V10.4604L50.4297 10.4792C50.4589 10.6412 50.4727 10.7952 50.4727 10.9442H50.686C50.686 10.7818 50.671 10.6149 50.6397 10.4413L50.624 10.3536H47.3268V11.3373H49.7576V11.2304L49.6514 11.2212C49.6044 11.7588 49.4335 12.1637 49.1456 12.4533C48.6873 12.9107 48.1248 13.1364 47.4335 13.1377C46.7848 13.1368 46.2344 12.9131 45.7598 12.4562C45.2898 12.0008 45.056 11.4195 45.0548 10.6841C45.056 9.94877 45.2898 9.36744 45.7598 8.91211C46.2344 8.45514 46.7847 8.23143 47.4335 8.23057C48.1548 8.23229 48.6994 8.47098 49.104 8.95302L49.179 9.04233L49.8236 8.39588L49.8927 8.32665L49.8298 8.25184C49.5677 7.93892 49.2185 7.69053 48.7894 7.50615C48.3594 7.32119 47.9056 7.22852 47.4335 7.22852C46.4852 7.2277 45.6669 7.56156 45.0031 8.22226C44.3369 8.88166 44.001 9.71052 44.002 10.6841C44.001 11.6573 44.3369 12.4867 45.0035 13.1465C45.6669 13.8067 46.4852 14.1402 47.4335 14.1393C48.421 14.1402 49.2402 13.8117 49.8619 13.1577L49.7847 13.0838L49.8602 13.1594C50.4127 12.6064 50.6868 11.8594 50.6861 10.9442H50.5794H50.5794ZM55.496 8.26648H52.5814V10.299H55.2098V11.0693H52.5814V13.1018H55.496V13.8893H51.7598V7.47897H55.496V8.26648Z" fill="white"/>
<path d="M55.4972 8.26642V8.15958H52.476V10.4058H55.1043V10.9621L52.4759 10.9624V13.2086H55.3905V13.7824H51.8676V7.58574H55.3905V8.26642H55.4972V8.15958V8.26642H55.6038V7.37207H51.6543V13.9961H55.6038V12.9949H52.6892V11.1761H55.3176V10.1921H52.6892V8.37325H55.6038V8.26642H55.4972ZM58.9651 13.8893H58.1422V8.26637H56.3546V7.47886H60.7526V8.26637H58.9651V13.8892" fill="white"/>
<path d="M58.9632 13.8893V13.7824H58.2469V8.15958H56.4594V7.58579H60.644V8.15958H58.8565V13.8892H58.9632V13.7824V13.8892H59.0699V8.37325H60.8574V7.37207H56.2461V8.37321H58.0336V13.996H59.0699V13.8892H58.9632V13.8893ZM63.9328 13.8893V7.47886H64.7549V13.8892H63.9328" fill="white"/>
<path d="M63.9328 13.8893H64.0395V7.58574H64.6482V13.7824H63.9328V13.8892H64.0395H63.9328V13.9961H64.8615V7.37207H63.8262V13.9961H63.9328V13.8892V13.8893ZM68.4028 13.8893H67.5799V8.26637H65.7924V7.47886H70.1903V8.26637H68.4028V13.8892" fill="white"/>
<path d="M68.4045 13.889V13.7821H67.6882V8.15925H65.9008V7.58546H70.0853V8.15925H68.2978V13.8889H68.4045V13.7821V13.8889H68.5112V8.37292H70.2987V7.37174H65.6875V8.37288H67.4749V13.9957H68.5112V13.8889H68.4045V13.889ZM74.432 12.5239C74.9057 13.0042 75.4854 13.2441 76.1708 13.2441C76.8562 13.2441 77.4362 13.0042 77.9091 12.5239C78.3833 12.0435 78.6208 11.4295 78.6208 10.6837C78.6208 9.93806 78.3833 9.32403 77.9091 8.84367C77.4362 8.36332 76.8562 8.12334 76.1708 8.12334C75.4854 8.12334 74.9057 8.36332 74.432 8.84367C73.9591 9.32403 73.7217 9.93801 73.7217 10.6837C73.7217 11.4295 73.9591 12.0435 74.432 12.5239ZM78.5174 13.0605C77.8882 13.7086 77.1058 14.0321 76.1708 14.0321C75.2349 14.0321 74.4528 13.7086 73.825 13.0605C73.1953 12.4131 72.882 11.6207 72.882 10.6837C72.882 9.74676 73.1953 8.95421 73.825 8.307C74.4528 7.65878 75.2349 7.33496 76.1708 7.33496C77.1008 7.33496 77.8812 7.66051 78.5133 8.31118C79.1445 8.96179 79.4604 9.75262 79.4604 10.6837C79.4604 11.6207 79.1453 12.4131 78.5174 13.0605Z" fill="white"/>
<path d="M74.432 12.5243L74.3562 12.5994C74.8475 13.0989 75.4604 13.3527 76.1708 13.3514C76.8808 13.3527 77.4945 13.0989 77.985 12.5994C78.4795 12.0993 78.7282 11.4524 78.7275 10.6841C78.7282 9.91588 78.4795 9.26896 77.985 8.76892C77.4945 8.26936 76.8808 8.01565 76.1708 8.01689C75.4604 8.01565 74.8475 8.26936 74.3562 8.76892C73.8629 9.26896 73.6137 9.91588 73.615 10.6841C73.6137 11.4524 73.8629 12.0993 74.3562 12.5994L74.432 12.5243L74.5079 12.4491C74.0554 11.9879 73.8292 11.4078 73.8283 10.6841C73.8292 9.96054 74.0554 9.38041 74.5079 8.91917C74.9645 8.45807 75.5099 8.23186 76.1708 8.23061C76.8312 8.23186 77.3778 8.45807 77.8333 8.91917C78.2866 9.38041 78.5129 9.96054 78.5137 10.6841C78.5129 11.4077 78.2866 11.9879 77.8333 12.4491C77.3778 12.9103 76.8312 13.1364 76.1708 13.1377C75.5099 13.1364 74.9645 12.9103 74.5079 12.4491L74.432 12.5243ZM78.5174 13.0609L78.4412 12.9867C77.8296 13.6143 77.0816 13.9244 76.1708 13.9257C75.2596 13.9244 74.5116 13.6143 73.9011 12.9867L73.8982 12.9833L73.9011 12.9867C73.2908 12.3568 72.9896 11.5973 72.9887 10.6841C72.9896 9.77097 73.2908 9.01145 73.9011 8.38167C74.5116 7.75396 75.2595 7.44349 76.1708 7.44224C77.0758 7.44349 77.822 7.75525 78.437 8.38623C79.0495 9.01894 79.3524 9.77726 79.3537 10.6841C79.3524 11.5973 79.0504 12.3568 78.4412 12.9867L78.5174 13.0609L78.5942 13.1351C79.2408 12.47 79.5678 11.6448 79.5671 10.6841C79.5678 9.72891 79.2395 8.90548 78.5899 8.23734C77.94 7.56655 77.1258 7.22737 76.1708 7.22852C75.2108 7.22737 74.3942 7.56497 73.7483 8.23316V8.23268C73.1004 8.89833 72.7745 9.72344 72.7754 10.6841C72.7745 11.6448 73.1004 12.47 73.7483 13.1356L73.7512 13.1386L73.7483 13.1351C74.3942 13.8033 75.2108 14.1402 76.1708 14.1393C77.1304 14.1402 77.947 13.8033 78.5942 13.1351L78.5174 13.0609ZM80.6145 13.8894V7.47892H81.6154L84.7258 12.4657H84.7612L84.7258 11.2304V7.47892H85.5487V13.8893H84.6903L81.4362 8.66079H81.4008L81.4362 9.89658V13.8893H80.6145" fill="white"/>
<path d="M80.6151 13.8893H80.7218V7.58574H81.5568L84.6672 12.5726H84.8714L84.8331 11.2288V7.58579H85.4427V13.7824H84.7502L81.496 8.55394H81.2919L81.3301 9.89829V13.7824H80.6152V13.8892H80.7218H80.6152V13.9961H81.5435V9.89488L81.5081 8.65789L81.4014 8.66077V8.76761H81.4368V8.66077L81.3464 8.71758L84.6318 13.9961H85.656V7.37207H84.6198V11.2316L84.6552 12.4686L84.7619 12.4657V12.3589H84.7264V12.4657L84.8169 12.409L81.6751 7.37207H80.5085V13.9961H80.6152V13.8892L80.6151 13.8893ZM114.067 32.0519H116.057V18.6958H114.066L114.067 32.0519ZM131.994 23.507L129.712 29.2975H129.644L127.276 23.5069H125.132L128.683 31.6003L126.658 36.1022H128.735L134.207 23.5069L131.994 23.507ZM120.706 30.5349C120.054 30.5349 119.145 30.2085 119.145 29.4006C119.145 28.3697 120.278 27.9745 121.255 27.9745C122.131 27.9745 122.541 28.1635 123.073 28.4216C122.919 29.6585 121.855 30.5349 120.706 30.5349ZM120.947 23.2147C119.505 23.2147 118.013 23.8507 117.396 25.2598L119.162 25.9984C119.54 25.2597 120.242 25.0189 120.981 25.0189C122.01 25.0189 123.056 25.6378 123.073 26.7375V26.8749C122.713 26.6686 121.942 26.3594 120.998 26.3594C119.094 26.3594 117.154 27.4073 117.154 29.3663C117.154 31.1534 118.716 32.3048 120.465 32.3048C121.804 32.3048 122.541 31.7034 123.005 30.999H123.073V32.0298H124.994V26.909C124.994 24.5382 123.228 23.2147 120.947 23.2147ZM108.646 25.1328H105.815V20.5547H108.646C110.134 20.5547 110.979 21.7887 110.979 22.8437C110.979 23.8787 110.134 25.1328 108.646 25.1328ZM108.594 18.6958H103.825V32.0519H105.815V26.9917H108.594C110.8 26.9917 112.969 25.392 112.969 22.8437C112.969 20.2955 110.8 18.6958 108.594 18.6958ZM82.5881 30.5374C81.213 30.5374 80.0618 29.3843 80.0618 27.8005C80.0618 26.2001 81.213 25.0294 82.5881 25.0294C83.9456 25.0294 85.011 26.2 85.011 27.8005C85.011 29.3843 83.9456 30.5374 82.5881 30.5374H82.5881ZM84.8735 24.2548H84.8047C84.3581 23.7214 83.4985 23.2394 82.416 23.2394C80.1477 23.2394 78.0685 25.2359 78.0685 27.8005C78.0685 30.348 80.1476 32.3274 82.416 32.3274C83.4985 32.3274 84.3581 31.8453 84.8047 31.2948H84.8735V31.9488C84.8735 33.6875 83.9456 34.6169 82.4506 34.6169C81.2305 34.6169 80.4744 33.7388 80.1647 32.9988L78.4294 33.7217C78.9277 34.9265 80.251 36.4069 82.4506 36.4069C84.7876 36.4069 86.7639 35.0296 86.7639 31.6734V23.5148H84.8735V24.2548ZM88.1385 32.0519H90.1319V18.6953H88.1385V32.0519ZM93.0705 27.6457C93.0189 25.8899 94.4281 24.9951 95.4418 24.9951C96.2329 24.9951 96.9027 25.3907 97.1257 25.9592L93.0705 27.6457ZM99.2569 26.1311C98.8793 25.1153 97.7273 23.2394 95.373 23.2394C93.036 23.2394 91.0943 25.0811 91.0943 27.7834C91.0943 30.3309 93.0189 32.3274 95.5964 32.3274C97.6761 32.3274 98.8793 31.0536 99.3774 30.3136L97.8307 29.2807C97.3155 30.0382 96.6105 30.5374 95.5964 30.5374C94.5826 30.5374 93.861 30.0725 93.3968 29.1605L99.4628 26.6474L99.2569 26.1311ZM50.9281 24.6337V26.5614H55.5334C55.396 27.6457 55.0351 28.4374 54.4851 28.9882C53.8151 29.6597 52.7669 30.3997 50.9281 30.3997C48.0926 30.3997 45.876 28.1105 45.876 25.2705C45.876 22.4305 48.0926 20.1411 50.9281 20.1411C52.4576 20.1411 53.5743 20.7436 54.3993 21.5182L55.7568 20.1586C54.6056 19.0567 53.076 18.2134 50.9281 18.2134C47.0443 18.2134 43.7793 21.3805 43.7793 25.2705C43.7793 29.1605 47.0443 32.3274 50.9281 32.3274C53.0248 32.3274 54.6056 31.6392 55.8427 30.348C57.1144 29.0742 57.5098 27.2843 57.5098 25.8386C57.5098 25.3907 57.4756 24.978 57.4064 24.6337H50.9281ZM62.7456 30.5374C61.3706 30.5374 60.1848 29.4013 60.1848 27.7834C60.1848 26.1482 61.3706 25.0294 62.7456 25.0294C64.1201 25.0294 65.3059 26.1482 65.3059 27.7834C65.3059 29.4014 64.1201 30.5374 62.7456 30.5374ZM62.7456 23.2394C60.2364 23.2394 58.1914 25.1499 58.1914 27.7834C58.1914 30.3997 60.2364 32.3274 62.7456 32.3274C65.2543 32.3274 67.2993 30.3997 67.2993 27.7834C67.2993 25.1499 65.2543 23.2394 62.7456 23.2394ZM72.6797 30.5374C71.3052 30.5374 70.1192 29.4013 70.1192 27.7834C70.1192 26.1482 71.3052 25.0294 72.6797 25.0294C74.0543 25.0294 75.2401 26.1482 75.2401 27.7834C75.2401 29.4014 74.0543 30.5374 72.6797 30.5374H72.6797ZM72.6797 23.2394C70.1706 23.2394 68.126 25.1499 68.126 27.7834C68.126 30.3997 70.1706 32.3274 72.6797 32.3274C75.1885 32.3274 77.2336 30.3997 77.2336 27.7834C77.2336 25.1499 75.1885 23.2394 72.6797 23.2394H72.6797Z" fill="white"/>
<path d="M11.2084 8.13198C10.8504 8.45546 10.6367 8.99502 10.6367 9.71123V9.54932V33.1833V33.0277C10.6367 33.6891 10.82 34.1999 11.1304 34.5288L11.2096 34.6048V34.6051C11.4608 34.8322 11.783 34.9528 12.1522 34.9524C12.5129 34.9524 12.9188 34.8372 13.3471 34.5939L28.83 25.7826L34.1483 22.7556C34.8237 22.3713 35.2029 21.8755 35.2663 21.3704V21.3684C35.2029 20.8622 34.8237 20.3668 34.1483 19.9824L28.8296 16.9558L13.3472 8.14446C12.9179 7.90078 12.5117 7.78516 12.15 7.78516C11.7813 7.78516 11.4596 7.90534 11.2084 8.13198H11.2084Z" fill="#00C1FF"/>
<path d="M11.2096 34.6045L11.1304 34.5285C10.82 34.1996 10.6367 33.6888 10.6367 33.0274V33.183V9.55488V9.71093C10.6367 8.99472 10.8504 8.45517 11.2084 8.13168L24.4242 21.3685L11.2096 34.6045Z" fill="url(#paint0_linear_8239_37981)"/>
<path d="M28.8297 25.7822L24.4238 21.3685L28.8293 16.9555L34.148 19.982C34.8234 20.3664 35.2026 20.8618 35.266 21.3681V21.3701C35.2026 21.8751 34.8234 22.371 34.148 22.7552L28.8297 25.7822" fill="url(#paint1_linear_8239_37981)"/>
<path d="M12.1534 34.9521C11.7842 34.9525 11.4621 34.8319 11.2109 34.6048V34.6045L24.4254 21.3685L28.8313 25.7823L13.3484 34.5937C12.92 34.837 12.5141 34.9521 12.1534 34.9521Z" fill="url(#paint2_linear_8239_37981)"/>
<path d="M24.4248 21.3691L11.209 8.1323C11.4602 7.90566 11.7819 7.78548 12.1506 7.78548C12.5123 7.78548 12.9185 7.90105 13.3478 8.14478L28.8303 16.9561L24.4248 21.3691" fill="url(#paint3_linear_8239_37981)"/>
<path d="M12.153 35.1094C11.7838 35.1094 11.4613 34.9888 11.21 34.7617L11.2096 34.7621C11.2086 34.7611 11.2075 34.7601 11.2063 34.7592L11.1376 34.692C11.1354 34.6899 11.1334 34.6875 11.1309 34.685L11.2101 34.6056C11.4613 34.8327 11.7834 34.9533 12.1526 34.9528C12.5133 34.9528 12.9192 34.8377 13.3476 34.5944L28.8305 25.7831L28.9297 25.8825L28.8292 25.9396L13.3475 34.7505C12.9572 34.9721 12.5858 35.0877 12.2505 35.1069C12.218 35.1085 12.1855 35.1093 12.153 35.1093" fill="url(#paint4_linear_8239_37981)"/>
<path d="M11.1304 34.6846C10.82 34.3557 10.6367 33.8452 10.6367 33.1834V33.0277C10.6367 33.6891 10.82 34.1999 11.1304 34.5289L11.2096 34.6049L11.1304 34.6846Z" fill="url(#paint5_linear_8239_37981)"/>
<path d="M28.9293 25.8818L28.8301 25.7824L34.1483 22.7555C34.8238 22.3712 35.203 21.8753 35.2663 21.3703C35.2663 21.5556 35.2251 21.7409 35.143 21.9213C34.9776 22.2848 34.646 22.6282 34.1484 22.9116L28.9293 25.8818" fill="url(#paint6_linear_8239_37981)"/>
<path d="M35.2668 21.3682C35.2034 20.8619 34.8242 20.3665 34.1488 19.9821L28.8301 16.9556L28.9293 16.8562H28.9297L34.1488 19.8265C34.8935 20.2505 35.2663 20.8093 35.2668 21.3682Z" fill="url(#paint7_linear_8239_37981)"/>
<path d="M10.6367 9.71094V9.54768C10.6367 9.48881 10.6383 9.43124 10.6413 9.37535V9.37281C10.6413 9.37204 10.6413 9.37122 10.6416 9.37036V9.36407C10.6737 8.79436 10.8504 8.34997 11.1304 8.05323L11.2084 8.13164C10.8504 8.45517 10.6367 8.99473 10.6367 9.71094Z" fill="url(#paint8_linear_8239_37981)"/>
<path d="M28.83 16.9561L13.3476 8.14462C12.9184 7.90094 12.5122 7.78536 12.1505 7.78536C11.7817 7.78536 11.46 7.90555 11.2088 8.13218L11.1309 8.05373C11.1552 8.0279 11.1805 8.003 11.2067 7.97906C11.2075 7.9782 11.2088 7.97733 11.2097 7.97651C11.4589 7.75161 11.7772 7.63142 12.1426 7.62926H12.1505C12.5122 7.62926 12.9184 7.74489 13.3476 7.98866L28.9297 16.8563L28.9292 16.8567L28.83 16.9561Z" fill="url(#paint9_linear_8239_37981)"/>
<defs>
<linearGradient id="paint0_linear_8239_37981" x1="19.0824" y1="9.30515" x2="7.69335" y2="20.7125" gradientUnits="userSpaceOnUse">
<stop stop-color="#00A0FF"/>
<stop offset="0.00657" stop-color="#00A1FF"/>
<stop offset="0.2601" stop-color="#00BEFF"/>
<stop offset="0.5122" stop-color="#00D2FF"/>
<stop offset="0.7604" stop-color="#00DFFF"/>
<stop offset="1" stop-color="#00E3FF"/>
</linearGradient>
<linearGradient id="paint1_linear_8239_37981" x1="36.0889" y1="21.2922" x2="10.2787" y2="21.2922" gradientUnits="userSpaceOnUse">
<stop stop-color="#FFE000"/>
<stop offset="0.4087" stop-color="#FFBD00"/>
<stop offset="0.7754" stop-color="#FFA500"/>
<stop offset="1" stop-color="#FF9C00"/>
</linearGradient>
<linearGradient id="paint2_linear_8239_37981" x1="26.4922" y1="25.565" x2="7.19256" y2="44.7545" gradientUnits="userSpaceOnUse">
<stop stop-color="#FF3A44"/>
<stop offset="1" stop-color="#C31162"/>
</linearGradient>
<linearGradient id="paint3_linear_8239_37981" x1="7.80289" y1="6.16988" x2="16.4043" y2="14.7354" gradientUnits="userSpaceOnUse">
<stop stop-color="#32A071"/>
<stop offset="0.0685" stop-color="#2DA771"/>
<stop offset="0.4762" stop-color="#15CF74"/>
<stop offset="0.8009" stop-color="#06E775"/>
<stop offset="1" stop-color="#00F076"/>
</linearGradient>
<linearGradient id="paint4_linear_8239_37981" x1="26.4817" y1="28.6273" x2="11.0256" y2="44.1084" gradientUnits="userSpaceOnUse">
<stop stop-color="#CC2E36"/>
<stop offset="1" stop-color="#9C0E4E"/>
</linearGradient>
<linearGradient id="paint5_linear_8239_37981" x1="12.3973" y1="9.30549" x2="2.36366" y2="19.3554" gradientUnits="userSpaceOnUse">
<stop stop-color="#008DE0"/>
<stop offset="0.00657" stop-color="#008DE0"/>
<stop offset="0.2601" stop-color="#00A7E0"/>
<stop offset="0.5122" stop-color="#00B8E0"/>
<stop offset="0.7604" stop-color="#00C4E0"/>
<stop offset="1" stop-color="#00C7E0"/>
</linearGradient>
<linearGradient id="paint6_linear_8239_37981" x1="36.0893" y1="21.3693" x2="10.2791" y2="21.3693" gradientUnits="userSpaceOnUse">
<stop stop-color="#E0C500"/>
<stop offset="0.4087" stop-color="#E0A600"/>
<stop offset="0.7754" stop-color="#E09100"/>
<stop offset="1" stop-color="#E08900"/>
</linearGradient>
<linearGradient id="paint7_linear_8239_37981" x1="36.0897" y1="21.3692" x2="10.2796" y2="21.3692" gradientUnits="userSpaceOnUse">
<stop stop-color="#FFE840"/>
<stop offset="0.4087" stop-color="#FFCE40"/>
<stop offset="0.7754" stop-color="#FFBC40"/>
<stop offset="1" stop-color="#FFB540"/>
</linearGradient>
<linearGradient id="paint8_linear_8239_37981" x1="12.3864" y1="9.32331" x2="2.72224" y2="18.5837" gradientUnits="userSpaceOnUse">
<stop stop-color="#40B8FF"/>
<stop offset="0.00657" stop-color="#40B9FF"/>
<stop offset="0.2601" stop-color="#40CEFF"/>
<stop offset="0.5122" stop-color="#40DDFF"/>
<stop offset="0.7604" stop-color="#40E7FF"/>
<stop offset="1" stop-color="#40EAFF"/>
</linearGradient>
<linearGradient id="paint9_linear_8239_37981" x1="7.78344" y1="8.9691" x2="14.6853" y2="15.8822" gradientUnits="userSpaceOnUse">
<stop stop-color="#65B895"/>
<stop offset="0.0685" stop-color="#62BD95"/>
<stop offset="0.4762" stop-color="#50DB97"/>
<stop offset="0.8009" stop-color="#44ED98"/>
<stop offset="1" stop-color="#40F498"/>
</linearGradient>
</defs>
</svg>
