<svg  viewBox="0 0 337 179" fill="none" xmlns="http://www.w3.org/2000/svg">
<g clip-path="url(#clip0_3141_36620)">
<rect height="100%" width="100%" fill="white"/>
<ellipse cx="12.5" cy="149.5" rx="104.5" ry="104.5" transform="rotate(90 12.5 149.5)" fill="#0A1F44"/>
<path d="M12.8391 273.882C9.48514 274.376 6.07937 274.71 2.62971 274.876L2.60557 274.377C0.914038 274.459 -0.788133 274.5 -2.5 274.5C-4.21186 274.5 -5.91403 274.459 -7.60555 274.377L-7.62969 274.876C-11.0794 274.71 -14.4851 274.376 -17.8391 273.882L-17.7663 273.388C-21.1601 272.888 -24.5006 272.225 -27.7794 271.406L-27.9005 271.891C-31.2388 271.058 -34.5135 270.064 -37.7159 268.918L-37.5475 268.447C-40.7665 267.295 -43.9121 265.989 -46.9756 264.537L-47.1897 264.989C-50.2902 263.52 -53.3069 261.903 -56.2306 260.147L-55.9732 259.718C-58.897 257.962 -61.7274 256.066 -64.4551 254.04L-64.7533 254.441C-67.5017 252.4 -70.1464 250.226 -72.678 247.93L-72.3421 247.56C-74.8639 245.273 -77.273 242.864 -79.56 240.342L-79.9304 240.678C-82.2263 238.146 -84.3997 235.502 -86.4413 232.753L-86.04 232.455C-88.0663 229.727 -89.9621 226.897 -91.7183 223.973L-92.1469 224.231C-93.903 221.307 -95.5202 218.29 -96.9892 215.19L-96.5374 214.976C-97.9888 211.912 -99.295 208.766 -100.447 205.547L-100.918 205.716C-102.064 202.513 -103.058 199.239 -103.891 195.901L-103.406 195.779C-104.225 192.501 -104.888 189.16 -105.387 185.766L-105.882 185.839C-106.376 182.485 -106.71 179.079 -106.876 175.63L-106.377 175.606C-106.459 173.914 -106.5 172.212 -106.5 170.5C-106.5 168.788 -106.459 167.086 -106.377 165.394L-106.876 165.37C-106.71 161.921 -106.376 158.515 -105.882 155.161L-105.387 155.234C-104.888 151.84 -104.225 148.499 -103.406 145.221L-103.891 145.1C-103.058 141.761 -102.064 138.487 -100.918 135.284L-100.447 135.453C-99.2949 132.234 -97.9888 129.088 -96.5374 126.024L-96.9892 125.81C-95.5202 122.71 -93.903 119.693 -92.1469 116.769L-91.7183 117.027C-89.9621 114.103 -88.0663 111.273 -86.04 108.545L-86.4413 108.247C-84.3997 105.498 -82.2263 102.854 -79.9304 100.322L-79.56 100.658C-77.273 98.1361 -74.8639 95.727 -72.3421 93.44L-72.6779 93.0696C-70.1463 90.7737 -67.5017 88.6003 -64.7533 86.5586L-64.4551 86.96C-61.7273 84.9337 -58.8969 83.0379 -55.9731 81.2817L-56.2306 80.8531C-53.3069 79.0969 -50.2902 77.4798 -47.1897 76.0108L-46.9756 76.4626C-43.9121 75.0112 -40.7664 73.705 -37.5475 72.5531L-37.7159 72.0823C-34.5135 70.9363 -31.2388 69.9421 -27.9005 69.1085L-27.7794 69.5936C-24.5006 68.7749 -21.1601 68.1117 -17.7663 67.6125L-17.8391 67.1178C-14.4851 66.6245 -11.0794 66.2904 -7.6297 66.1237L-7.60556 66.6231C-5.91403 66.5414 -4.21186 66.5 -2.49999 66.5C-0.788132 66.5 0.914032 66.5414 2.60556 66.6231L2.6297 66.1237C6.07936 66.2904 9.48514 66.6245 12.8391 67.1178L12.7663 67.6125C16.1601 68.1117 19.5006 68.7749 22.7794 69.5936L22.9005 69.1085C26.2388 69.9421 29.5135 70.9363 32.7159 72.0823L32.5475 72.5531C35.7665 73.705 38.9121 75.0112 41.9756 76.4626L42.1897 76.0108C45.2902 77.4798 48.3069 79.097 51.2306 80.8531L50.9732 81.2817C53.897 83.0379 56.7274 84.9337 59.4551 86.96L59.7533 86.5587C62.5017 88.6003 65.1464 90.7737 67.678 93.0696L67.3421 93.44C69.8639 95.727 72.273 98.1361 74.56 100.658L74.9304 100.322C77.2263 102.854 79.3997 105.498 81.4414 108.247L81.04 108.545C83.0663 111.273 84.9621 114.103 86.7183 117.027L87.1469 116.769C88.9031 119.693 90.5202 122.71 91.9892 125.81L91.5374 126.024C92.9888 129.088 94.295 132.234 95.4469 135.453L95.9177 135.284C97.0637 138.487 98.0579 141.761 98.8915 145.1L98.4064 145.221C99.2251 148.499 99.8883 151.84 100.387 155.234L100.882 155.161C101.376 158.515 101.71 161.921 101.876 165.37L101.377 165.394C101.459 167.086 101.5 168.788 101.5 170.5C101.5 172.212 101.459 173.914 101.377 175.606L101.876 175.63C101.71 179.079 101.376 182.485 100.882 185.839L100.387 185.766C99.8883 189.16 99.2251 192.501 98.4064 195.779L98.8915 195.901C98.0579 199.239 97.0637 202.514 95.9177 205.716L95.4469 205.547C94.295 208.766 92.9888 211.912 91.5374 214.976L91.9892 215.19C90.5202 218.29 88.903 221.307 87.1469 224.231L86.7183 223.973C84.9621 226.897 83.0663 229.727 81.04 232.455L81.4413 232.753C79.3997 235.502 77.2263 238.146 74.9304 240.678L74.56 240.342C72.273 242.864 69.8639 245.273 67.3421 247.56L67.6779 247.93C65.1464 250.226 62.5017 252.4 59.7533 254.441L59.4551 254.04C56.7274 256.066 53.897 257.962 50.9731 259.718L51.2306 260.147C48.3069 261.903 45.2902 263.52 42.1897 264.989L41.9756 264.537C38.9121 265.989 35.7665 267.295 32.5475 268.447L32.7159 268.918C29.5135 270.064 26.2388 271.058 22.9005 271.891L22.7794 271.406C19.5006 272.225 16.1601 272.888 12.7663 273.388L12.8391 273.882Z" stroke="white" stroke-dasharray="10 10"/>
<g filter="url(#filter0_d_3141_36620)">
<circle cx="222.811" cy="-32.7618" r="84.7617" transform="rotate(90 222.811 -32.7618)" fill="#0A1F44"/>
</g>
<g filter="url(#filter1_d_3141_36620)">
<circle cx="199.773" cy="-46.2383" r="84.2617" transform="rotate(90 199.773 -46.2383)" stroke="black" stroke-dasharray="10 10" shape-rendering="crispEdges"/>
</g>
<g filter="url(#filter2_f_3141_36620)">
<ellipse cx="222.358" cy="-23.696" rx="63.0047" ry="76.1495" transform="rotate(90 222.358 -23.696)" fill="#234EAD"/>
</g>
<g filter="url(#filter3_f_3141_36620)">
<ellipse cx="15" cy="140" rx="57" ry="68" transform="rotate(90 15 140)" fill="#234EAD"/>
</g>
</g>
<defs>
<filter id="filter0_d_3141_36620" x="131.249" y="-117.523" width="183.123" height="183.123" filterUnits="userSpaceOnUse" color-interpolation-filters="sRGB">
<feFlood flood-opacity="0" result="BackgroundImageFix"/>
<feColorMatrix in="SourceAlpha" type="matrix" values="0 0 0 0 0 0 0 0 0 0 0 0 0 0 0 0 0 0 127 0" result="hardAlpha"/>
<feOffset dy="6.8"/>
<feGaussianBlur stdDeviation="3.4"/>
<feComposite in2="hardAlpha" operator="out"/>
<feColorMatrix type="matrix" values="0 0 0 0 0.024407 0 0 0 0 0.371844 0 0 0 0 0.80752 0 0 0 0.1 0"/>
<feBlend mode="normal" in2="BackgroundImageFix" result="effect1_dropShadow_3141_36620"/>
<feBlend mode="normal" in="SourceGraphic" in2="effect1_dropShadow_3141_36620" result="shape"/>
</filter>
<filter id="filter1_d_3141_36620" x="108.212" y="-131" width="183.123" height="183.123" filterUnits="userSpaceOnUse" color-interpolation-filters="sRGB">
<feFlood flood-opacity="0" result="BackgroundImageFix"/>
<feColorMatrix in="SourceAlpha" type="matrix" values="0 0 0 0 0 0 0 0 0 0 0 0 0 0 0 0 0 0 127 0" result="hardAlpha"/>
<feOffset dy="6.8"/>
<feGaussianBlur stdDeviation="3.4"/>
<feComposite in2="hardAlpha" operator="out"/>
<feColorMatrix type="matrix" values="0 0 0 0 0.024407 0 0 0 0 0.371844 0 0 0 0 0.80752 0 0 0 0.1 0"/>
<feBlend mode="normal" in2="BackgroundImageFix" result="effect1_dropShadow_3141_36620"/>
<feBlend mode="normal" in="SourceGraphic" in2="effect1_dropShadow_3141_36620" result="shape"/>
</filter>
<filter id="filter2_f_3141_36620" x="86.209" y="-146.701" width="272.299" height="246.009" filterUnits="userSpaceOnUse" color-interpolation-filters="sRGB">
<feFlood flood-opacity="0" result="BackgroundImageFix"/>
<feBlend mode="normal" in="SourceGraphic" in2="BackgroundImageFix" result="shape"/>
<feGaussianBlur stdDeviation="30" result="effect1_foregroundBlur_3141_36620"/>
</filter>
<filter id="filter3_f_3141_36620" x="-113" y="23" width="256" height="234" filterUnits="userSpaceOnUse" color-interpolation-filters="sRGB">
<feFlood flood-opacity="0" result="BackgroundImageFix"/>
<feBlend mode="normal" in="SourceGraphic" in2="BackgroundImageFix" result="shape"/>
<feGaussianBlur stdDeviation="30" result="effect1_foregroundBlur_3141_36620"/>
</filter>
<clipPath id="clip0_3141_36620">
<rect width="337" height="179" fill="white"/>
</clipPath>
</defs>
</svg>
