<svg id='icon' viewBox="0 0 24 25" fill="none" xmlns="http://www.w3.org/2000/svg">
<g clip-path="url(#clip0_2004_9404)">
<path d="M21.5385 18.7902H19.6555C19.5269 18.7902 19.4064 18.8465 19.326 18.9456C19.1385 19.1732 18.9377 19.3929 18.726 19.6018C17.8606 20.4681 16.8354 21.1586 15.7073 21.6349C14.5385 22.1285 13.2823 22.3818 12.0135 22.3795C10.7305 22.3795 9.48765 22.1277 8.31979 21.6349C7.19165 21.1586 6.16651 20.4681 5.30104 19.6018C4.43403 18.7384 3.7427 17.7151 3.26533 16.5884C2.76979 15.4206 2.52069 14.1804 2.52069 12.8974C2.52069 11.6143 2.77247 10.3741 3.26533 9.20628C3.74211 8.0786 4.42783 7.06343 5.30104 6.19289C6.17426 5.32235 7.18944 4.63664 8.31979 4.15985C9.48765 3.667 10.7305 3.41521 12.0135 3.41521C13.2966 3.41521 14.5394 3.66432 15.7073 4.15985C16.8377 4.63664 17.8528 5.32235 18.726 6.19289C18.9377 6.4045 19.1359 6.62414 19.326 6.84914C19.4064 6.94825 19.5296 7.0045 19.6555 7.0045H21.5385C21.7073 7.0045 21.8118 6.817 21.718 6.67503C19.6635 3.48218 16.0689 1.36878 11.9841 1.3795C5.56622 1.39557 0.420685 6.60539 0.484971 13.0152C0.549257 19.3232 5.68676 24.4152 12.0135 24.4152C16.0877 24.4152 19.6662 22.3045 21.718 19.1197C21.8091 18.9777 21.7073 18.7902 21.5385 18.7902ZM23.9198 12.7286L20.1189 9.7286C19.9769 9.6161 19.7707 9.71789 19.7707 9.89735V11.9331H11.36C11.2421 11.9331 11.1457 12.0295 11.1457 12.1474V13.6474C11.1457 13.7652 11.2421 13.8616 11.36 13.8616H19.7707V15.8974C19.7707 16.0768 19.9796 16.1786 20.1189 16.0661L23.9198 13.0661C23.9454 13.0461 23.9661 13.0204 23.9804 12.9912C23.9946 12.962 24.002 12.9299 24.002 12.8974C24.002 12.8648 23.9946 12.8327 23.9804 12.8035C23.9661 12.7743 23.9454 12.7486 23.9198 12.7286Z" fill="white"/>
</g>
<defs>
<clipPath id="clip0_2004_9404">
<rect width="24" height="24" fill="white" transform="translate(0 0.896057)"/>
</clipPath>
</defs>
</svg>
