<svg id="icon" viewBox="0 0 22 20" xmlns="http://www.w3.org/2000/svg">
<path fill-rule="evenodd" clip-rule="evenodd" d="M9.24416 1.21893C10.0022 -0.170797 11.9977 -0.170795 12.7557 1.21893L21.3867 17.0423C22.1136 18.375 21.149 20 19.6309 20H2.36904C0.850917 20 -0.113709 18.375 0.613245 17.0423L9.24416 1.21893ZM10.0952 15.5C10.0952 14.9477 10.5429 14.5 11.0952 14.5C11.6475 14.5 12.0952 14.9477 12.0952 15.5C12.0952 16.0523 11.6475 16.5 11.0952 16.5C10.5429 16.5 10.0952 16.0523 10.0952 15.5ZM11.0952 6.99998C10.5429 6.99998 10.0952 7.4477 10.0952 7.99998V12C10.0952 12.5523 10.5429 13 11.0952 13C11.6475 13 12.0952 12.5523 12.0952 12V7.99998C12.0952 7.4477 11.6475 6.99998 11.0952 6.99998Z" />
</svg>