<svg id="icon" viewBox="0 0 19 21" fill="none" xmlns="http://www.w3.org/2000/svg">
<path fill-rule="evenodd" clip-rule="evenodd" d="M8.5 15.5469C8.5 16.0992 8.05228 16.5469 7.5 16.5469C6.94772 16.5469 6.5 16.0992 6.5 15.5469V9.54688C6.5 8.99459 6.94772 8.54688 7.5 8.54688C8.05228 8.54688 8.5 8.99459 8.5 9.54688V15.5469ZM12.5 15.5469C12.5 16.0992 12.0523 16.5469 11.5 16.5469C10.9477 16.5469 10.5 16.0992 10.5 15.5469V9.54688C10.5 8.99459 10.9477 8.54688 11.5 8.54688C12.0523 8.54688 12.5 8.99459 12.5 9.54688V15.5469ZM7.5 2.54688V3.54688H11.5V2.54688H7.5ZM1.5 3.54688H5.5V1.54688C5.5 0.99459 5.94772 0.546875 6.5 0.546875H12.5C13.0523 0.546875 13.5 0.99459 13.5 1.54688V3.54688H17.5C18.0523 3.54688 18.5 3.99459 18.5 4.54688C18.5 5.09916 18.0523 5.54688 17.5 5.54688H16.5V19.0469C16.5 19.8753 15.8284 20.5469 15 20.5469H4C3.17157 20.5469 2.5 19.8753 2.5 19.0469V5.54688H1.5C0.947715 5.54688 0.5 5.09916 0.5 4.54688C0.5 3.99459 0.947715 3.54688 1.5 3.54688ZM14.5 5.54688H4.5V18.5469H14.5V5.54688Z" fill="currentColor"/>
</svg>
