<svg id="icon" viewBox="0 0 18 18" fill="none" xmlns="http://www.w3.org/2000/svg">
<path d="M12.5787 6.74404L9.83464 9.48812V1.49996C9.83464 1.03972 9.46154 0.666626 9.0013 0.666626C8.54106 0.666626 8.16797 1.03972 8.16797 1.49996V9.48812L5.42389 6.74404C5.09845 6.4186 4.57082 6.4186 4.24538 6.74404C3.91994 7.06947 3.91994 7.59711 4.24538 7.92255L8.41145 12.0886L8.41751 12.0946C8.49613 12.1718 8.58626 12.2303 8.68232 12.2701C8.78057 12.3108 8.88831 12.3333 9.0013 12.3333C9.22865 12.3333 9.43474 12.2422 9.58509 12.0946L9.59115 12.0886L13.7572 7.92255C14.0827 7.59711 14.0827 7.06947 13.7572 6.74404C13.4318 6.4186 12.9042 6.4186 12.5787 6.74404Z" fill="currentColor"/>
<path d="M16.5013 11.5C16.0411 11.5 15.668 11.8731 15.668 12.3333V15.25C15.668 15.4801 15.4814 15.6666 15.2513 15.6666H2.7513C2.52118 15.6666 2.33464 15.4801 2.33464 15.25V12.3333C2.33464 11.8731 1.96154 11.5 1.5013 11.5C1.04106 11.5 0.667969 11.8731 0.667969 12.3333V15.25C0.667969 16.4006 1.60071 17.3333 2.7513 17.3333H15.2513C16.4019 17.3333 17.3346 16.4006 17.3346 15.25V12.3333C17.3346 11.8731 16.9615 11.5 16.5013 11.5Z" fill="currentColor"/>
</svg>
