<svg id="icon" viewBox="0 0 20 21" fill="none" xmlns="http://www.w3.org/2000/svg">
<path fill-rule="evenodd" clip-rule="evenodd" d="M0.375305 7.93427L9.37531 0.734268C9.74052 0.442093 10.2595 0.442093 10.6247 0.734268L19.6247 7.93427C19.8619 8.12404 20 8.41135 20 8.71514V19.2345C20 19.7868 19.5523 20.2345 19 20.2345C18.4477 20.2345 1 20.2345 1 20.2345C0.447715 20.2345 0 19.7868 0 19.2345V8.71514C0 8.41135 0.13809 8.12404 0.375305 7.93427ZM14 18.2345H18V9.19576L10 2.79576L2 9.19576V18.2345H6V14.2345C6 12.0254 7.79086 10.2345 10 10.2345C12.2091 10.2345 14 12.0254 14 14.2345V18.2345ZM13 20.2345C12.3904 20.2345 12 19.7345 12 19.2345C12 18.7345 12 14.2345 12 14.2345C12 13.1299 11.1046 12.2345 10 12.2345C8.89543 12.2345 8 13.1299 8 14.2345C8 14.2345 8 18.7345 8 19.2345C8 19.7345 7.70899 20.2345 7 20.2345C6.29101 20.2345 13.6096 20.2345 13 20.2345Z" fill="currentColor"/>
</svg>
