<svg id="icon" viewBox="0 0 21 20" xmlns="http://www.w3.org/2000/svg">
<path fill-rule="evenodd" clip-rule="evenodd" d="M10.5 13.75C9.8487 13.3333 9.04656 12.8202 8.83333 12.6838C6.77547 13.1624 5.49661 14.503 4.95975 15.8333H16.0402C15.5034 14.503 14.2245 13.1624 12.1667 12.6838C12.0281 12.7724 11.3333 13.2169 10.5 13.75C10.4958 13.7473 10.4958 13.7473 10.5 13.75ZM18 17.5H3C3 13.5625 5.90444 10.8333 10.5 10.8333C15.0956 10.8333 18 13.5625 18 17.5ZM10.5 8.33334C11.4129 8.33334 12.1667 7.57954 12.1667 6.66668C12.1667 5.75382 11.4129 5.00001 10.5 5.00001C9.58714 5.00001 8.83333 5.75382 8.83333 6.66668C8.83333 7.57954 9.58714 8.33334 10.5 8.33334ZM10.5 10C8.66667 10 7.16667 8.50001 7.16667 6.66668C7.16667 4.83334 8.66667 3.33334 10.5 3.33334C12.3333 3.33334 13.8333 4.83334 13.8333 6.66668C13.8333 8.50001 12.3333 10 10.5 10Z" />
<path d="M8.41699 16.6667L10.5003 13.75L12.5837 16.6667L10.5003 18.3333L8.41699 16.6667Z" fill="currentcolor" stroke="currentcolor"/>
</svg>
