<svg width="40" height="40" viewBox="0 0 40 40" fill="none" xmlns="http://www.w3.org/2000/svg">
<circle cx="20" cy="20" r="20" fill="url(#paint0_linear_2622_34276)"/>
<path fill-rule="evenodd" clip-rule="evenodd" d="M20 20C21.1046 20 22 19.1046 22 18C22 16.8954 21.1046 16 20 16C18.8954 16 18 16.8954 18 18C18 19.1046 18.8954 20 20 20ZM20 22C17.7909 22 16 20.2091 16 18C16 15.7909 17.7909 14 20 14C22.2091 14 24 15.7909 24 18C24 20.2091 22.2091 22 20 22ZM27 18C27 14.134 23.866 11 20 11C16.134 11 13 14.134 13 18C13 21.6245 15.2602 25.1427 20 28.5665C24.7398 25.1427 27 21.6245 27 18ZM19.7191 30.811C13.9064 26.8636 11 22.5933 11 18C11 13.0294 15.0294 9 20 9C24.9706 9 29 13.0294 29 18C29 22.5933 26.0936 26.8636 20.2809 30.811C20.1113 30.9261 19.8887 30.9261 19.7191 30.811Z" fill="white"/>
<defs>
<linearGradient id="paint0_linear_2622_34276" x1="-7.45057e-08" y1="20" x2="40" y2="20" gradientUnits="userSpaceOnUse">
<stop stop-color="#D97422"/>
<stop offset="1" stop-color="#FB9746"/>
</linearGradient>
</defs>
</svg>
