<svg id="icon" viewBox="0 0 20 20" fill="none" xmlns="http://www.w3.org/2000/svg">
<path d="M7 9L16.5858 9L13.2929 5.70711C12.9024 5.31658 12.9024 4.68342 13.2929 4.29289C13.6834 3.90237 14.3166 3.90237 14.7071 4.29289L19.7063 9.29212L19.7136 9.29945C19.8063 9.3938 19.8764 9.50195 19.9241 9.61722C19.973 9.73512 20 9.86441 20 10C20 10.2728 19.8907 10.5201 19.7136 10.7005L19.7063 10.7079L14.7071 15.7071C14.3166 16.0976 13.6834 16.0976 13.2929 15.7071C12.9024 15.3166 12.9024 14.6834 13.2929 14.2929L16.5858 11L7 11C6.44771 11 6 10.5523 6 10C6 9.44771 6.44771 9 7 9Z" fill="currentColor"/>
<path d="M7 19C7 18.4477 6.55228 18 6 18L2.5 18C2.22386 18 2 17.7761 2 17.5L2 2.5C2 2.22386 2.22386 2 2.5 2L6 2C6.55229 2 7 1.55228 7 0.999999C7 0.447715 6.55229 -5.87818e-07 6 -6.11959e-07L2.5 -7.64949e-07C1.11929 -8.25302e-07 -4.89256e-08 1.11929 -1.09278e-07 2.5L-7.64949e-07 17.5C-8.25302e-07 18.8807 1.11929 20 2.5 20L6 20C6.55228 20 7 19.5523 7 19Z" fill="currentColor"/>
</svg>
