<svg id="icon" viewBox="0 0 20 21" fill="none" xmlns="http://www.w3.org/2000/svg">
<path fill-rule="evenodd" clip-rule="evenodd" d="M10 20.5542C15.5228 20.5542 20 16.077 20 10.5542C20 5.03135 15.5228 0.554199 10 0.554199C4.47715 0.554199 0 5.03135 0 10.5542C0 16.077 4.47715 20.5542 10 20.5542ZM13.3141 7.34709C13.7047 6.95657 14.3378 6.95657 14.7284 7.34709C15.1189 7.73762 15.1189 8.37078 14.7284 8.76131L8.72836 14.7613C8.33783 15.1518 7.70467 15.1518 7.31414 14.7613L4.79289 12.2401C4.40237 11.8495 4.40237 11.2164 4.79289 10.8258C5.18342 10.4353 5.81658 10.4353 6.20711 10.8258L8.02125 12.64L13.3141 7.34709Z" fill="currentColor"/>
</svg>
