<svg id="icon" version="1.1" xmlns="http://www.w3.org/2000/svg" xmlns:xlink="http://www.w3.org/1999/xlink" x="0px" y="0px" viewBox="0 0 256 256" enable-background="new 0 0 256 256" xml:space="preserve">
<metadata> Svg Vector Icons : http://www.onlinewebfonts.com/icon </metadata>
<g><g><g><path fill="#FFFFFF" d="M118.3,10.6c-51.8,3.9-95.6,42.9-106,94.2C0.9,161.2,32,217.7,85.8,238.4c13.3,5.1,27,7.6,42.3,7.6c26.4,0,50.3-8,71.2-23.7c21.4-16.1,37.2-39.9,43.3-65.3c3.5-14.4,4.4-31.3,2.5-45c-7.1-50.3-45.2-90.5-94.9-99.8c-5.6-1.1-20.2-2.5-23.8-2.3C125.5,10,121.9,10.3,118.3,10.6z M146.6,36.4c21.1,4.6,39.5,15.5,52.9,31.5c11.6,13.9,18.6,29.5,21.2,47.3c1.3,8.5,0.9,23.5-0.9,31.6c-8,37.1-36.1,65.3-73.2,73.2c-8.1,1.7-23.1,2.1-31.6,0.9c-26.7-3.9-50-18.7-65-41c-6.5-9.8-11.1-20.9-13.8-33.4c-1.1-5.1-1.3-7.6-1.3-18.3c0-10.7,0.2-13.2,1.3-18.5C42,83.2,57.7,61.2,80.8,47.4c9.5-5.7,21.5-9.9,33.2-11.8C121.5,34.4,139.2,34.8,146.6,36.4z"/><path fill="#FFFFFF" d="M129.8,127.1v44.4h9.8h9.8l0.1-12.9l0.2-12.8l10.9,12.8l10.9,12.9h13.3c12.5,0,13.2-0.1,12.5-1c-0.8-0.9-16.9-18.1-24.1-25.6l-3.1-3.3l11.8-12.6c6.5-6.9,12.3-13.2,12.9-13.9l1.1-1.3h-12.5h-12.5l-10.2,12.3c-5.7,6.8-10.4,12.4-10.7,12.4c-0.3,0.1-0.5-12.5-0.5-27.9v-28h-9.8h-9.8V127.1z"/><path fill="#FFFFFF" d="M85.9,112.1c-7.8,0.7-14.5,4-20.2,9.9c-5.4,5.6-8.1,12.7-8.1,20.9c0,8.7,2.7,15.1,8.9,21.4c6.3,6.3,13.8,9.5,23.1,9.5c18.2-0.1,32.6-13.6,32.6-30.9c0-8.4-2.8-15.2-8.9-21.4C106,114,97.6,111.1,85.9,112.1z M94.1,129.4c1.3,0.3,3.1,1.6,4.4,3.1c2.8,3,3.9,7,3.5,12.2c-0.5,6.2-3.4,10.2-8.4,11.7c-6.1,1.8-11.6-0.5-14.2-5.7c-1.3-2.5-1.5-3.8-1.5-7.6c0-7.1,2.5-11.5,7.6-13.6C87.3,128.7,91.5,128.7,94.1,129.4z"/></g></g></g>
</svg>