<svg width="40" height="40" viewBox="0 0 40 40" fill="none" xmlns="http://www.w3.org/2000/svg">
<circle cx="20" cy="20" r="20" fill="url(#paint0_linear_2622_34280)"/>
<path fill-rule="evenodd" clip-rule="evenodd" d="M27.9105 23.9362V26.3362C27.9123 26.7867 27.7241 27.2171 27.3922 27.5216C27.0602 27.8262 26.6152 27.9767 26.1665 27.9362C23.7048 27.6687 21.3401 26.8275 19.2625 25.4802C17.3296 24.2519 15.6908 22.6131 14.4625 20.6802C13.1105 18.5931 12.2691 16.217 12.0065 13.7442C11.9661 13.2969 12.1155 12.8532 12.4183 12.5215C12.7211 12.1897 13.1494 12.0006 13.5985 12.0001H15.9985C16.8016 11.9923 17.4861 12.5809 17.5985 13.3762C17.6998 14.1442 17.8877 14.8983 18.1585 15.6242C18.3783 16.2089 18.2377 16.868 17.7985 17.3122L16.7825 18.3282C17.9213 20.331 19.5797 21.9893 21.5825 23.1282L22.5985 22.1122C23.0427 21.6729 23.7018 21.5324 24.2865 21.7522C25.0123 22.023 25.7664 22.2109 26.5345 22.3122C27.3389 22.4256 27.9307 23.124 27.9105 23.9362Z" fill="white"/>
<defs>
<linearGradient id="paint0_linear_2622_34280" x1="-7.45057e-08" y1="20" x2="40" y2="20" gradientUnits="userSpaceOnUse">
<stop stop-color="#D97422"/>
<stop offset="1" stop-color="#FB9746"/>
</linearGradient>
</defs>
</svg>
