<svg id="icon" version="1.0" xmlns="http://www.w3.org/2000/svg" viewBox="0 0 400.000000 400.000000"
 preserveAspectRatio="xMidYMid meet" fill="#ffffff">

<g transform="translate(0.000000,400.000000) scale(0.100000,-0.100000)" stroke="none">
<path d="M1416 3011 l-340 -88 -88 -344 -88 -344 118 -117 117 -118 -118 -118
-117 -117 88 -345 88 -344 344 -88 344 -89 118 118 118 118 118 -118 118 -118
344 88 344 89 88 344 88 344 -117 118 -118 118 117 118 118 117 -88 344 -88
344 -345 88 -344 88 -117 -117 -118 -117 -118 118 c-64 64 -119 117 -122 116
-3 0 -158 -40 -344 -88z m367 -209 l77 -77 -113 -113 -112 -112 -143 143 -144
144 164 42 c90 23 168 44 173 46 6 2 12 4 15 4 3 1 40 -34 83 -77z m705 27
l164 -42 -144 -144 -143 -143 -112 112 -113 113 77 77 c47 47 83 76 93 74 8
-3 88 -24 178 -47z m-1100 -576 l-112 -112 -35 29 c-20 15 -55 48 -79 73 l-43
44 40 159 c23 87 44 170 47 182 6 22 19 12 150 -119 l144 -144 -112 -112z
m1453 193 l40 -161 -76 -74 -76 -75 -115 115 -114 114 142 142 c129 129 143
141 151 121 4 -12 26 -94 48 -182z m-726 24 l110 -110 -113 -113 -112 -112
-112 112 -113 113 110 110 c60 60 112 110 115 110 3 0 55 -50 115 -110z m-360
-360 l110 -110 -113 -113 -112 -112 -112 112 -113 113 110 110 c60 60 112 110
115 110 3 0 55 -50 115 -110z m723 -3 l112 -112 -113 -113 -112 -112 -115 115
-115 115 110 110 c60 60 112 110 115 110 3 0 56 -51 118 -113z m-1120 -614
c-78 -78 -144 -141 -146 -138 -2 2 -24 82 -48 177 l-43 173 77 78 77 77 112
-112 113 -113 -142 -142z m760 254 l112 -112 -113 -113 -112 -112 -115 115
-115 115 110 110 c60 60 112 110 115 110 3 0 56 -51 118 -113z m726 -182 c-19
-77 -40 -158 -45 -179 l-11 -39 -144 144 -144 144 112 112 113 113 77 -77 77
-78 -35 -140z m-1055 -371 l-76 -76 -144 37 c-79 20 -162 41 -183 46 l-39 11
144 144 144 144 115 -115 115 -115 -76 -76z m844 14 c-10 -4 -92 -26 -182 -49
l-164 -41 -76 76 -76 76 115 115 115 115 143 -142 c116 -117 139 -144 125
-150z"/>
</g>
</svg>
