<svg id="icon" viewBox="0 0 24 24" fill="none" xmlns="http://www.w3.org/2000/svg">
<path fill-rule="evenodd" clip-rule="evenodd" d="M14.5625 19.625C17.2933 19.625 19.3509 18.143 20.619 15.5C19.3509 12.857 17.2933 11.375 14.5625 11.375C11.8317 11.375 9.7741 12.857 8.50598 15.5C9.7741 18.143 11.8317 19.625 14.5625 19.625ZM7 15.5C8.30831 12.3643 10.7812 10 14.5625 10C18.3438 10 20.8167 12.3643 22.125 15.5C20.8167 18.6357 18.3438 21 14.5625 21C10.7812 21 8.30831 18.6357 7 15.5ZM13.1875 15.5C13.1875 16.2623 13.8002 16.875 14.5625 16.875C15.3248 16.875 15.9375 16.2623 15.9375 15.5C15.9375 14.7377 15.3248 14.125 14.5625 14.125C13.8002 14.125 13.1875 14.7377 13.1875 15.5ZM11.8125 15.5C11.8125 13.9783 13.0408 12.75 14.5625 12.75C16.0842 12.75 17.3125 13.9783 17.3125 15.5C17.3125 17.0217 16.0842 18.25 14.5625 18.25C13.0408 18.25 11.8125 17.0217 11.8125 15.5Z" fill="currentColor"/>
<path d="M21.9979 7.62853L22 5.57157C22 3.51426 20.7048 3.00023 18.2504 3.00007C15.7961 2.99991 10.0005 3.00007 7.75163 3.00007C5.50276 3.00007 4.00206 3.00007 4.00206 6.5C4.00206 9.99993 4.00206 17.9143 4.00206 17.9143C3.94822 20.614 4.95017 20.8785 7.00172 21L7.75163 21" stroke="currentColor" stroke-width="1.7" stroke-linecap="round" stroke-linejoin="round"/>
<circle cx="13" cy="6" r="1" fill="currentColor"/>
<circle cx="16" cy="6" r="1" fill="currentColor"/>
<circle cx="19" cy="6" r="1" fill="currentColor"/>
</svg>
