<svg id="icon" viewBox="0 0 21 19" fill="none" xmlns="http://www.w3.org/2000/svg">
<path d="M6.5 4V2C6.5 1.45 6.696 0.979 7.088 0.587C7.47933 0.195667 7.95 0 8.5 0H12.5C13.05 0 13.521 0.195667 13.913 0.587C14.3043 0.979 14.5 1.45 14.5 2V4H18.5C19.05 4 19.521 4.196 19.913 4.588C20.3043 4.97933 20.5 5.45 20.5 6V17C20.5 17.55 20.3043 18.021 19.913 18.413C19.521 18.8043 19.05 19 18.5 19H2.5C1.95 19 1.47933 18.8043 1.088 18.413C0.696 18.021 0.5 17.55 0.5 17V6C0.5 5.45 0.696 4.97933 1.088 4.588C1.47933 4.196 1.95 4 2.5 4H6.5ZM8.5 4H12.5V2H8.5V4ZM18.5 13H13.5V14C13.5 14.2833 13.4043 14.5207 13.213 14.712C13.021 14.904 12.7833 15 12.5 15H8.5C8.21667 15 7.97933 14.904 7.788 14.712C7.596 14.5207 7.5 14.2833 7.5 14V13H2.5V17H18.5V13ZM9.5 13H11.5V11H9.5V13ZM2.5 11H7.5V10C7.5 9.71667 7.596 9.479 7.788 9.287C7.97933 9.09567 8.21667 9 8.5 9H12.5C12.7833 9 13.021 9.09567 13.213 9.287C13.4043 9.479 13.5 9.71667 13.5 10V11H18.5V6H2.5V11Z" fill="currentColor"/>
</svg>
