<svg id="icon" viewBox="0 0 24 24" fill="none" xmlns="http://www.w3.org/2000/svg">
<path d="M12.0025 21.05H16.5037C19.2045 21.05 21.005 19.2495 21.005 16.5488V12.0475C21.005 9.61684 19.4746 7.81634 17.2239 7.54626C17.0439 7.54626 16.7738 7.54626 16.5037 7.54626H7.50125C7.23117 7.54626 7.05112 7.54624 6.78105 7.63627C4.4404 7.90634 3 9.61684 3 12.0475C3 12.3176 3 12.6777 3 12.9478" stroke="currentcolor" stroke-width="1.5" stroke-linecap="round" stroke-linejoin="round"/>
<path d="M21.0052 12.4977H18.3044C17.3141 12.4977 16.5039 13.3079 16.5039 14.2982C16.5039 15.2885 17.3141 16.0987 18.3044 16.0987H21.0052" stroke="currentcolor" stroke-width="1.5" stroke-linecap="round" stroke-linejoin="round"/>
<path d="M6.4228 20.5099C8.01624 20.5099 9.30359 19.2225 9.30359 17.6291C9.30359 16.0357 8.01624 14.7483 6.4228 14.7483C4.82935 14.7483 3.54199 16.0357 3.54199 17.6291C3.54199 19.2225 4.82935 20.5099 6.4228 20.5099Z" stroke="currentcolor" stroke-width="1.5" stroke-linecap="round" stroke-linejoin="round"/>
<path d="M3 21.05L3.90025 20.1498" stroke="currentcolor" stroke-width="1.5" stroke-linecap="round" stroke-linejoin="round"/>
</svg>
